<svg width="154" height="28" viewBox="0 0 154 28" fill="none" xmlns="http://www.w3.org/2000/svg">
<path d="M50.9322 25.6324V27.7324H49.6808C48.185 27.7324 47.625 27.0852 47.6029 25.986C46.8415 27.1011 45.6552 27.8625 43.872 27.8625C41.3913 27.8625 39.6683 26.6332 39.6683 24.5124C39.6683 22.141 41.3434 20.8466 44.5204 20.8466H47.3597V20.1564C47.3597 18.8841 46.4461 18.1006 44.879 18.1006C43.4704 18.1006 42.5347 18.7699 42.3554 19.7757H39.9618C40.2283 17.5627 42.1048 16.1529 44.9932 16.1529C47.8817 16.1529 49.752 17.6045 49.752 20.3087V24.8882C49.752 25.4703 49.9534 25.6275 50.4643 25.6275H50.9322V25.6324ZM47.3585 22.6359H44.4099C42.9362 22.6359 42.1097 23.1959 42.1097 24.3539C42.1097 25.3168 42.9141 25.986 44.2097 25.986C46.1783 25.986 47.3585 24.801 47.3585 23.0817V22.6359Z" fill="black"/>
<path d="M56.1849 27.731L51.8499 16.2878H54.4448L57.7077 25.1373L60.9486 16.2878H63.4944L59.1372 27.731H56.1837H56.1849Z" fill="black"/>
<path d="M75.8201 25.6324V27.7324H74.5687C73.0729 27.7324 72.5129 27.0852 72.4908 25.986C71.7294 27.1011 70.5431 27.8625 68.76 27.8625C66.2793 27.8625 64.5551 26.6332 64.5551 24.5124C64.5551 22.141 66.2301 20.8466 69.4072 20.8466H72.2465V20.1564C72.2465 18.8841 71.3328 18.1006 69.7658 18.1006C68.3572 18.1006 67.4214 18.7699 67.2421 19.7757H64.8486C65.115 17.5627 66.9915 16.1529 69.88 16.1529C72.7684 16.1529 74.6387 17.6045 74.6387 20.3087V24.8882C74.6387 25.4703 74.8401 25.6275 75.351 25.6275H75.8189V25.6324H75.8201ZM72.2415 22.6359H69.2942C67.8205 22.6359 66.994 23.1959 66.994 24.3539C66.994 25.3168 67.7996 25.986 69.094 25.986C71.0626 25.986 72.2428 24.801 72.2428 23.0817V22.6359H72.2415Z" fill="black"/>
<path d="M86.8717 25.6102V27.7311H77.5764V25.6102H81.0298V14.3623L77.5764 15.5044V13.3725L80.5299 12.2415H83.4454V25.6151H86.8778L86.8729 25.6102H86.8717Z" fill="black"/>
<path d="M99.7454 25.6324V27.7324H98.494C96.9982 27.7324 96.4382 27.0852 96.4161 25.986C95.6547 27.1011 94.4697 27.8625 92.6853 27.8625C90.2046 27.8625 88.4803 26.6332 88.4803 24.5124C88.4803 22.141 90.1554 20.8466 93.3325 20.8466H96.1718V20.1564C96.1718 18.8841 95.2581 18.1006 93.6911 18.1006C92.2825 18.1006 91.3467 18.7699 91.1674 19.7757H88.7739C89.0403 17.5627 90.9168 16.1529 93.8053 16.1529C96.6937 16.1529 98.564 17.6045 98.564 20.3087V24.8882C98.564 25.4703 98.7654 25.6275 99.2763 25.6275H99.7442V25.6324H99.7454ZM96.173 22.6359H93.2256C91.7519 22.6359 90.9254 23.1959 90.9254 24.3539C90.9254 25.3168 91.7298 25.986 93.0242 25.986C94.9928 25.986 96.173 24.801 96.173 23.0817V22.6359Z" fill="black"/>
<path d="M112.67 21.2052V27.7324H110.233V21.4287C110.233 19.395 109.363 18.2799 107.638 18.2799C105.827 18.2799 104.734 19.5964 104.734 21.8094V27.7324H102.32V16.2892H104.42L104.686 17.785C105.376 16.8934 106.453 16.1529 108.194 16.1529C110.63 16.1529 112.665 17.4694 112.665 21.2052H112.67Z" fill="black"/>
<path d="M115.633 22.0317C115.633 18.5022 117.891 16.1517 121.333 16.1517C124.259 16.1517 126.091 17.7838 126.538 20.3775H124.015C123.699 19.034 122.741 18.2075 121.29 18.2075C119.37 18.2075 118.092 19.7954 118.092 22.0317C118.092 24.268 119.364 25.8068 121.29 25.8068C122.721 25.8068 123.704 24.9582 123.992 23.6368H126.538C126.113 26.2304 124.167 27.8625 121.263 27.8625C117.819 27.8625 115.628 25.6054 115.628 22.0317H115.633Z" fill="black"/>
<path d="M139.9 21.2051V27.7323H137.463V21.4065C137.463 19.4379 136.594 18.2786 134.804 18.2786C133.015 18.2786 131.856 19.6221 131.856 21.7872V27.7323H129.441V12.0903H131.856V17.7469C132.639 16.762 133.824 16.159 135.364 16.159C138.045 16.159 139.9 17.7469 139.9 21.2113V21.2064V21.2051Z" fill="black"/>
<path d="M145.28 22.5708V22.685C145.345 24.6266 146.552 25.905 148.429 25.905C149.859 25.905 150.952 25.1657 151.268 23.8922H153.682C153.279 26.1494 151.382 27.8674 148.565 27.8674C144.991 27.8674 142.756 25.5451 142.756 22.0366C142.756 18.528 144.991 16.1566 148.319 16.1566C151.647 16.1566 153.819 18.2566 153.884 21.6116C153.884 21.856 153.862 22.2367 153.819 22.5744H145.28V22.5695V22.5708ZM145.367 20.7594H151.376C151.175 19.0622 150.012 18.0994 148.336 18.0994C146.841 18.0994 145.54 19.1273 145.361 20.7594H145.367Z" fill="black"/>
<path d="M19.7639 27.731H30.3278C31.2599 27.731 31.8432 26.7216 31.3766 25.9147L26.0946 16.7668C25.628 15.96 24.4638 15.96 23.9971 16.7668L18.7152 25.9147C18.2485 26.7216 18.8318 27.731 19.7639 27.731Z" fill="black"/>
<path d="M21.0855 8.09034L16.7443 0.569643C16.3059 -0.190532 15.208 -0.190532 14.7695 0.569643L0.168954 25.8581C-0.311222 26.6907 0.289305 27.7297 1.24965 27.7297H9.94316C10.8704 27.7297 11.7263 27.2347 12.1893 26.4328L21.0855 11.0242C21.6099 10.1167 21.6099 8.99789 21.0855 8.09034Z" fill="black"/>
</svg>
