<svg width="141" height="20" viewBox="0 0 141 20" fill="none" xmlns="http://www.w3.org/2000/svg">
<path d="M17.9916 17.2826H0V15.868H19.031L17.9916 17.2826Z" fill="#D40511"/>
<path d="M19.9232 14.656H0V13.2432H20.9645L19.9232 14.656Z" fill="#D40511"/>
<path d="M16.0639 19.8997H0V18.4947H17.0988L16.0639 19.8997Z" fill="#D40511"/>
<path d="M122.809 15.8689H140.727V17.2826H121.77L122.809 15.8689Z" fill="#D40511"/>
<path d="M120.877 18.4947H140.727V19.8997L119.843 19.9016L120.877 18.4947Z" fill="#D40511"/>
<path d="M140.727 14.6569L123.701 14.6579L124.741 13.2432H140.727V14.6569Z" fill="#D40511"/>
<path d="M18.4329 19.8996L27.4638 7.62994H38.6704C39.9091 7.62994 39.8929 8.10023 39.2875 8.92054C38.6728 9.75342 37.6265 11.1856 37.0004 12.0311C36.6827 12.4606 36.1079 13.2432 38.012 13.2432H53.0254C51.7768 14.9536 47.7269 19.8996 40.4545 19.8996H18.4329Z" fill="#D40511"/>
<path d="M70.1522 13.2422L65.2554 19.8997H52.3369C52.3369 19.8997 57.2316 13.2432 57.236 13.2432L70.1522 13.2422Z" fill="#D40511"/>
<path d="M88.8333 13.2432L83.9337 19.8997H71.0201C71.0201 19.8997 75.9153 13.2432 75.9197 13.2432H88.8333Z" fill="#D40511"/>
<path d="M93.0341 13.2432C93.0346 13.2432 92.0907 14.5338 91.632 15.1534C90.0099 17.3457 91.4435 19.8997 96.7376 19.8997H117.477L122.376 13.2432H93.0341Z" fill="#D40511"/>
<path d="M24.7482 0L20.2521 6.10863H44.7564C45.9949 6.10863 45.9786 6.57892 45.3734 7.39923C44.7586 8.23117 43.7296 9.6798 43.1035 10.5253C42.7856 10.9539 42.211 11.7364 44.1151 11.7364H54.1357C54.1357 11.7364 55.7509 9.53821 57.1048 7.70079C58.9468 5.20109 57.2645 0 50.6797 0H24.7482Z" fill="#D40511"/>
<path d="M74.9486 6.72927H80.7125L85.6679 0H98.58L89.9425 11.7364H58.3457L66.9858 0H79.8999L74.9486 6.72927Z" fill="#D40511"/>
<path d="M116.465 0L107.826 11.7364H94.1418C94.1418 11.7364 102.783 0 102.788 0H116.465Z" fill="#D40511"/>
</svg>
