<svg width="159" height="28" viewBox="0 0 159 28" fill="none" xmlns="http://www.w3.org/2000/svg">
<g clip-path="url(#clip0_393_1160)">
<path d="M21.3704 0.0316772L5.36232 12.883H2.15811L0.0262451 15.1205H5.36232L21.3704 27.9683H26.7102L16.0345 15.1205H26.6612V12.883H16.0345L26.7102 0.0316772H21.3704Z" fill="#100690"/>
<path d="M37.1919 10.4243V12.5354H46.75V15.4766H37.1919V17.6151H47.6955V21.0022H33.3758V7.01306H47.6863V10.4243H37.1919ZM49.5941 21.0022V7.01306H56.0131L60.5049 15.7483L64.9988 7.01306H71.5284V21.0022H67.705V11.0486H67.5453L62.3925 21.0022H58.6212L53.499 11.0408H53.4047V21.0022H49.5941ZM73.4539 21.0022V7.01306H84.7075C87.5093 7.01306 88.8625 8.28933 88.8625 10.9222C88.8625 12.4235 88.2831 13.344 87.0294 13.8783C88.6124 14.1745 89.3007 15.2078 89.3007 17.2046C89.3007 19.9035 88.0582 21.0022 85.2904 21.0022H73.4539ZM84.952 11.308C84.952 10.611 84.5534 10.1511 83.9685 10.1511H77.2702V12.4599H83.9685C84.606 12.4599 84.952 12.0556 84.952 11.308ZM85.3631 16.5377C85.3631 15.7878 84.952 15.3083 84.3126 15.3083H77.2702V17.8211H84.3126C84.9828 17.8211 85.3631 17.3627 85.3631 16.5377ZM119.292 15.3083L116.733 10.3621L114.229 15.3083H119.292ZM107.023 21.0022L114.229 7.01306H119.364L126.436 21.0022H122.009L120.739 18.675H112.704L111.416 21.0022H107.023ZM146.448 10.5003V13.9202H153.715C154.782 13.9202 155.09 13.4 155.09 12.0767C155.09 10.9993 154.695 10.5003 153.715 10.5003H146.448ZM158.974 11.5926C158.974 13.9013 158.463 15.0559 156.893 15.4766C158.202 15.8305 158.872 16.7115 158.872 18.1345V21.0022H155.058V18.8664C155.058 17.6711 154.596 17.4214 153.335 17.4214H146.448V21.0022H142.612V7.01306H153.852C157.633 7.01306 158.974 7.95551 158.974 11.5926ZM94.5987 10.5003V13.9202H101.871C102.94 13.9202 103.248 13.4 103.248 12.0767C103.248 10.9993 102.853 10.5003 101.871 10.5003H94.5987ZM107.128 11.5926C107.128 13.9013 106.616 15.0559 105.05 15.4766C106.354 15.8305 107.023 16.7115 107.023 18.1345V21.0022H103.215V18.8664C103.215 17.6711 102.752 17.4214 101.493 17.4214H94.5987V21.0022H90.7682V7.01306H102.009C105.787 7.01306 107.128 7.95551 107.128 11.5926ZM130.25 10.4243V12.5354H139.809V15.4766H130.25V17.6151H140.747V21.0022H126.436V7.01306H140.743V10.4243H130.25Z" fill="#100690"/>
</g>
<defs>
<clipPath id="clip0_393_1160">
<rect width="159" height="28" fill="white"/>
</clipPath>
</defs>
</svg>
