<svg width="101" height="37" viewBox="0 0 101 37" fill="none" xmlns="http://www.w3.org/2000/svg">
<g clip-path="url(#clip0_393_1163)">
<path d="M0 18.5V37H50.5H101V18.5V0H50.5H0V18.5ZM99.3122 18.5V35.3341L50.5266 35.3166L1.73219 35.2903L1.70554 18.4737L1.68777 1.66588H50.5H99.3122V18.5Z" fill="black"/>
<path d="M8.70538 8.97818V9.45164L9.08735 9.51301C9.29166 9.53931 9.59369 9.59192 9.75358 9.61823L10.0378 9.66206L10.0201 18.4912L9.99342 27.3116L9.35384 27.3817L8.70538 27.4606V27.9779V28.4952H12.0809H15.4565V27.9779V27.4606L14.8169 27.3817L14.1684 27.3116L14.1418 23.296L14.124 19.2891H18.5655H23.0071V23.2696C23.0071 26.5926 22.9893 27.259 22.8827 27.2941C22.8116 27.3204 22.4741 27.373 22.1276 27.408L21.4969 27.4694V27.9779V28.4952H24.9613H28.4257V27.9779V27.4606L27.8305 27.3993C27.5107 27.3642 27.191 27.3204 27.1199 27.2941C27.0222 27.259 27.0044 25.6808 27.0044 18.4561V9.66206L27.3597 9.60946C27.5552 9.58315 27.875 9.53055 28.0704 9.50424L28.4257 9.45164V8.97818V8.50472H24.9613H21.4969V8.97818V9.45164L21.9233 9.50424C22.1543 9.53931 22.4918 9.58315 22.6784 9.60946L23.0071 9.66206V13.4234V17.1848H18.5655H14.124V13.4234V9.66206L14.506 9.60069C15.5542 9.44287 15.4565 9.50424 15.4565 8.97818V8.50472H12.0809H8.70538V8.97818Z" fill="black"/>
<path d="M33.6578 8.75026C31.8101 9.69718 32.5474 12.4503 34.6438 12.4503C35.2745 12.4503 35.7631 12.2223 36.1717 11.7576C36.8379 10.986 36.8379 9.96898 36.1628 9.19741C35.541 8.46969 34.5372 8.29433 33.6578 8.75026Z" fill="black"/>
<path d="M40.5955 8.93434V9.36396L41.1995 9.4341L41.7947 9.51301L41.8213 18.4737L41.8391 27.4256L41.5992 27.4782C41.4571 27.5045 41.1817 27.5483 40.9774 27.5746L40.5955 27.636V28.0656V28.4952H43.7489H46.9024V28.0656V27.636L46.5293 27.5746C46.3161 27.5483 46.0408 27.5045 45.9075 27.4782L45.6588 27.4256V17.9651V8.50472H43.1271H40.5955V8.93434Z" fill="black"/>
<path d="M52.7918 10.7318L50.9885 11.2666V12.7746V14.2915H49.6117H48.2348V14.9491V15.6066H49.5584H50.8908L50.9175 20.9287C50.953 26.8557 50.953 26.7943 51.5659 27.636C52.4987 28.8986 55.2879 29.0301 58.6102 27.9604L59.1609 27.7763V27.2941V26.8118L58.8944 26.8732C58.7434 26.9083 58.1127 26.9346 57.4909 26.9346C55.8742 26.9434 55.359 26.7505 54.9681 25.9701L54.7638 25.5581L54.7372 20.578L54.7105 15.6066H56.4072H58.095V14.9491V14.2915H56.4072H54.7194V12.231C54.7194 11.1 54.6928 10.1706 54.6572 10.1794C54.6128 10.1882 53.7778 10.4336 52.7918 10.7318Z" fill="black"/>
<path d="M66.445 13.9057C65.1126 14.081 63.4515 14.7386 62.5187 15.4663C61.4261 16.3256 60.5467 17.6934 60.1381 19.1576C59.8627 20.1396 59.7917 22.3227 59.996 23.4889C60.2891 25.1197 60.7688 26.128 61.737 27.0924C62.8918 28.241 64.4819 28.8021 66.8892 28.8986C69.4297 29.0125 71.5084 28.3462 73.0185 26.9434C74.4486 25.6194 75.1149 24.0851 75.2126 21.9194C75.2748 20.5429 75.1415 19.4995 74.7596 18.3948C74.3687 17.2462 73.9956 16.6588 73.1517 15.8258C72.5743 15.2471 72.2812 15.0455 71.5972 14.7035C70.4335 14.1424 69.5363 13.9407 67.9996 13.8969C67.3156 13.8794 66.6138 13.8881 66.445 13.9057ZM68.044 14.9929C69.0833 15.1858 69.7939 15.7732 70.3092 16.878C70.8688 18.0704 71.0642 19.2277 71.0642 21.4284C71.0642 25.8211 69.9805 27.8026 67.5554 27.8114C66.676 27.8201 66.0364 27.5746 65.4946 27.0135C64.3664 25.8737 63.8157 23.2258 64.0466 20.122C64.2776 17.0095 65.2281 15.3261 66.9158 14.9929C67.4399 14.8964 67.5199 14.8964 68.044 14.9929Z" fill="black"/>
<path d="M86.2719 14.0372C85.1616 14.1775 83.7936 14.7824 82.6299 15.6505C82.2746 15.9135 81.937 16.1327 81.8926 16.1327C81.8482 16.1327 81.8127 15.7206 81.8127 15.2121V14.2914H79.281H76.7493V14.7649V15.2384L77.1757 15.291C77.4067 15.326 77.6998 15.3699 77.8419 15.3962L78.0818 15.4488V21.4372V27.4256L77.5755 27.4782C76.7493 27.5746 76.7493 27.5746 76.7493 28.0656V28.4952H79.9472H83.1451V28.0569C83.1451 27.8114 83.1185 27.6185 83.0829 27.6097C83.0385 27.6009 82.7543 27.5571 82.4345 27.4957L81.8571 27.3993V22.314V17.2287L82.3012 16.9393C82.5499 16.7815 83.0652 16.5272 83.456 16.3782C84.0689 16.1327 84.2733 16.0976 84.9661 16.0888C85.8455 16.0888 86.2542 16.2379 86.7161 16.7201C87.4178 17.4478 87.5156 18.2632 87.48 23.4099L87.4534 27.3993L86.876 27.4957C86.5562 27.5571 86.2719 27.6009 86.2364 27.6097C86.192 27.6185 86.1653 27.8114 86.1653 28.0569V28.4952H89.3632H92.5611V28.0656C92.5611 27.5746 92.5611 27.5746 91.7439 27.4869L91.2375 27.4256L91.2109 22.3227C91.1842 17.2725 91.1754 17.2199 90.9711 16.6149C90.6957 15.782 90.4292 15.3523 89.8962 14.8789C89.3721 14.4142 88.7059 14.1424 87.8176 14.0284C87.1069 13.932 87.0448 13.932 86.2719 14.0372Z" fill="black"/>
<path d="M31.4459 14.7211V15.1507L31.8723 15.2033C32.1033 15.2384 32.3964 15.2822 32.5385 15.3085L32.7784 15.3611L32.7606 21.3758L32.734 27.3993L32.1566 27.4957C31.8368 27.5571 31.5525 27.6009 31.517 27.6097C31.4726 27.6185 31.4459 27.8114 31.4459 28.0569V28.4952H34.6527H37.8506L37.8239 28.0919C37.7884 27.6097 37.7262 27.5571 37.0245 27.4869L36.5092 27.4343V20.8585V14.2914H33.9776H31.4459V14.7211Z" fill="black"/>
</g>
<defs>
<clipPath id="clip0_393_1163">
<rect width="101" height="37" fill="white"/>
</clipPath>
</defs>
</svg>
