<svg width="117" height="33" viewBox="0 0 117 33" fill="none" xmlns="http://www.w3.org/2000/svg">
<g clip-path="url(#clip0_393_1155)">
<path d="M106.073 27.88V28.0544C106.073 28.0544 106.291 28.03 106.066 28.4484L105.339 29.7922L105.236 29.9683L104.428 28.4926C104.354 28.3537 104.287 28.2266 104.179 28.1152C104 27.9321 103.886 27.9084 103.886 27.9084H103.273V28.0616L103.38 28.0797C103.522 28.0971 103.827 28.4216 104.121 28.9427L104.825 30.1949C104.857 30.2533 104.875 30.3347 104.875 30.427V30.7665C104.875 30.9868 104.864 31.5956 104.825 31.6595C104.789 31.7172 104.722 31.7408 104.586 31.7464L104.556 31.7637V31.9366H105.731V31.7637L105.702 31.7464C105.566 31.7407 105.498 31.7172 105.463 31.6595C105.424 31.5956 105.412 30.9868 105.412 30.7665V30.502C105.412 30.3299 105.443 30.2036 105.467 30.1325L105.621 29.8444L105.659 29.778H105.656L106.348 28.4895C106.497 28.21 106.712 28.0545 106.892 28.0545V27.88L106.073 27.88ZM2.11278 29.2304C1.80442 29.2304 1.48527 29.3614 1.48527 29.3614L1.48095 28.3619H3.36116V27.9071L1.22579 27.8969L1.22825 29.7073L1.28376 29.7436C1.48111 29.6836 1.69233 29.5762 1.9367 29.5762C2.32061 29.5762 2.92576 29.802 2.88413 30.5197C2.84405 31.2161 2.26896 31.6551 1.46029 31.6551C1.22209 31.6551 1.11725 31.6251 0.977714 31.5832L0.942993 31.6788C1.08252 31.7861 1.19893 31.8935 1.28064 32.0001C2.31518 32.0001 3.32736 31.2927 3.36283 30.4092C3.39138 29.7018 2.81043 29.2304 2.11278 29.2304ZM115.536 31.7473C115.207 31.9502 114.648 32.0607 114.302 32.0607C112.943 32.0607 112.027 31.2665 112.027 29.9511C112.027 29.2839 112.282 28.7565 112.717 28.3918C113.141 28.0317 113.72 27.8351 114.352 27.8351C114.88 27.8351 115.389 27.9741 115.66 28.0712L115.546 28.5742H115.289C115.289 28.5742 115.362 28.2339 114.951 28.1146C114.766 28.0617 114.466 28.0546 114.257 28.0546C113.192 28.0546 112.633 28.8726 112.633 29.8579C112.633 31.0051 113.374 31.7473 114.494 31.7473C114.902 31.7473 115.383 31.5965 115.644 31.3999L115.695 31.4576L115.536 31.7473ZM70.1437 28.6272C70.1437 28.4077 70.1321 28.2561 70.092 28.193C70.0589 28.1353 70.0566 28.1108 69.9217 28.1061L69.8924 28.088V27.9151L70.9362 27.9144V28.0881L70.9061 28.1063C70.7705 28.1108 70.7651 28.1355 70.7327 28.1932C70.6926 28.2563 70.681 28.4079 70.681 28.6274V30.621C70.681 31.4445 71.0996 31.6822 71.8458 31.6822C72.4579 31.6822 73.0122 31.4445 73.0122 30.4828V28.6274C73.0122 28.4079 73.0014 28.2563 72.9621 28.1932C72.9282 28.1355 72.9228 28.1174 72.7864 28.1063L72.7786 28.0881V27.9152C73.4393 27.9197 73.1572 27.9224 73.5233 27.9146V28.0883L73.5164 28.1065C73.38 28.1175 73.3584 28.1357 73.3245 28.1933C73.2844 28.2565 73.2736 28.4081 73.2736 28.6276V30.303C73.2736 31.5434 72.8149 32.0423 71.6709 32.0423C70.7088 32.0423 70.1438 31.7463 70.1438 30.6859L70.1437 28.6272ZM94.0832 28.6199C94.0832 28.3997 94.0724 28.2489 94.0323 28.1857C93.9984 28.1273 93.9306 28.1099 93.7941 28.0981L93.7872 28.0814V27.907C94.0362 27.9126 94.4286 27.9126 94.5303 27.907L97.2362 31.328H97.2531V28.6199C97.2531 28.3996 97.2423 28.2488 97.2023 28.1857C97.1683 28.1272 97.0997 28.1099 96.9641 28.098L96.9571 28.0814V27.9069C97.183 27.9126 97.5599 27.9126 97.8089 27.9069V28.0814L97.8019 28.098C97.667 28.1098 97.5984 28.1272 97.5645 28.1857C97.5252 28.2488 97.5128 28.3996 97.5128 28.6199V31.936L97.021 31.9423L94.3545 28.5504H94.3429V31.223C94.3429 31.4433 94.3545 31.5941 94.3946 31.6581C94.4285 31.7157 94.4963 31.7331 94.632 31.7449L94.6397 31.7615V31.9359C94.3907 31.9303 94.013 31.9303 93.7871 31.9359V31.7615L93.794 31.7449C93.9305 31.733 93.9983 31.7157 94.0322 31.6581C94.0723 31.5941 94.0831 31.4433 94.0831 31.223L94.0832 28.6199ZM60.4495 28.6199C60.4495 28.3997 60.4387 28.2489 60.3994 28.1857C60.3647 28.1273 60.2969 28.1099 60.1612 28.0981L60.1535 28.0814V27.907C60.4025 27.9126 60.7957 27.9126 60.8974 27.907L63.6033 31.328H63.6195V28.6199C63.6195 28.3996 63.608 28.2488 63.5694 28.1857C63.5347 28.1272 63.4661 28.1099 63.3304 28.098L63.3235 28.0814V27.9069C63.5493 27.9126 63.9271 27.9126 64.1761 27.9069V28.0814L64.1684 28.098C64.0335 28.1098 63.9649 28.1272 63.9317 28.1857C63.8923 28.2488 63.8793 28.3996 63.8793 28.6199V31.936L63.3867 31.9423L60.7209 28.5504H60.7101V31.223C60.7101 31.4433 60.7209 31.5941 60.7618 31.6581C60.7957 31.7157 60.8636 31.7331 60.9993 31.7449L61.0062 31.7615V31.9359C60.7572 31.9303 60.3795 31.9303 60.1536 31.9359V31.7615L60.1613 31.7449C60.297 31.733 60.3648 31.7157 60.3995 31.6581C60.4388 31.5941 60.4497 31.4433 60.4497 31.223L60.4495 28.6199ZM79.517 28.6464C79.517 28.4269 79.5047 28.2753 79.4653 28.2114C79.4314 28.1537 79.4214 28.1293 79.2842 28.1237L79.2556 28.1071V27.9074H81.9792L81.8882 28.3961L81.6893 28.4005V28.3563C81.6893 28.2813 81.6869 28.2 81.6384 28.2C81.3548 28.2 80.2123 28.1974 80.0535 28.1974V29.7702L81.3108 29.767C81.3108 29.767 81.3501 29.6494 81.3555 29.5728L81.3833 29.52H81.5536C81.5481 29.7568 81.5367 29.7292 81.5367 29.9439C81.5367 30.1595 81.5483 30.1318 81.5536 30.3403H81.3833L81.3555 30.2455C81.35 30.1697 81.3108 30.0458 81.3108 30.0458C81.3108 30.0458 80.2462 30.0483 80.0535 30.0483V31.6716C80.21 31.6716 81.5714 31.6716 81.6731 31.6716C81.7687 31.6716 81.8312 31.7024 81.8705 31.3542H82.0686C82.0123 31.6329 81.9792 31.9448 81.9792 31.9448L79.2502 31.946V31.7881C79.2502 31.7881 79.4314 31.7416 79.4653 31.6839C79.5046 31.6192 79.517 31.4684 79.517 31.2481V28.6458L79.517 28.6464ZM52.0471 28.6464C52.0471 28.4269 52.0356 28.2753 51.9962 28.2114C51.9623 28.1537 51.9515 28.1293 51.8158 28.1237L51.7858 28.1071V27.9074H54.5094L54.4184 28.3961L54.2203 28.4005V28.3563C54.2203 28.2813 54.2172 28.2 54.1701 28.2C53.8849 28.2 52.7424 28.1974 52.5852 28.1974V29.7702L53.8417 29.767L53.915 29.5199H54.0846C54.079 29.7568 54.0669 29.7292 54.0669 29.9439C54.0669 30.1594 54.0792 30.1318 54.0846 30.3403H53.915L53.8417 30.0458C53.8417 30.0458 52.7764 30.0483 52.5852 30.0483V31.6716C52.7409 31.6716 54.1023 31.6716 54.2033 31.6716C54.2996 31.6716 54.3621 31.7024 54.4014 31.3542H54.5988C54.5424 31.6329 54.5093 31.9447 54.5093 31.9447L51.7811 31.946V31.7881C51.7811 31.7881 51.9623 31.7416 51.9962 31.6839C52.0356 31.6191 52.0471 31.4683 52.0471 31.2481V28.6457V28.6464ZM44.4594 31.2422L45.4947 28.5017C45.6134 28.1882 45.5486 28.1361 45.4014 28.1235L45.3258 28.1069V27.9332H46.1453V28.1069L46.1052 28.1235C45.9873 28.1361 45.914 28.2632 45.8015 28.5419L44.8155 30.9824C44.6798 31.3132 44.5557 31.6433 44.4532 31.997H44.1703C44.0801 31.6551 43.9552 31.3235 43.8419 31.04L42.7773 28.3619C42.7048 28.1772 42.6254 28.129 42.529 28.1235L42.4851 28.1069V27.9332H43.5489V28.1069L43.4533 28.1235C43.3454 28.1292 43.293 28.1646 43.3446 28.3035L44.4594 31.2422ZM36.2988 30.3853L35.585 28.6586L34.8665 30.3853H36.2988ZM37.1877 31.1796C37.2378 31.2956 37.3002 31.452 37.3688 31.5735C37.4313 31.6841 37.4937 31.7591 37.5947 31.7709L37.6471 31.7883V31.962H36.5232V31.7883L36.5895 31.7709C36.7082 31.7646 36.7806 31.7244 36.7806 31.6549C36.7806 31.5735 36.7174 31.422 36.6604 31.2838L36.4006 30.6174H34.7702L34.6121 31.0051C34.5612 31.1275 34.414 31.5151 34.414 31.6075C34.414 31.7307 34.4487 31.7536 34.6252 31.7709L34.6746 31.7883V31.962H33.7672V31.7883L33.8027 31.7709C33.9384 31.7591 34.0463 31.6375 34.108 31.4859L35.1163 29.1386C35.2913 28.7328 35.4832 28.3041 35.6366 27.8872H35.8178L37.1877 31.1796ZM21.5301 31.2214C21.5301 31.4409 21.5424 31.5925 21.581 31.6565C21.6149 31.7141 21.6257 31.737 21.7613 31.7433L21.7914 31.7599V31.9336H20.7345V31.7599L20.7645 31.7433C20.9002 31.737 20.9071 31.7141 20.9411 31.6565C20.9811 31.5925 20.9927 31.4409 20.9927 31.2214V29.9282H18.7286V31.2214C18.7286 31.4409 18.7402 31.5925 18.7794 31.6565C18.8134 31.7141 18.8157 31.737 18.9514 31.7433L18.9815 31.7599V31.9336H17.9253V31.7599L17.9546 31.7433C18.0911 31.737 18.1057 31.7141 18.1404 31.6565C18.1797 31.5925 18.1905 31.4409 18.1905 31.2214V28.6183C18.1905 28.3988 18.1797 28.248 18.1404 28.1841C18.1057 28.1257 18.0911 28.102 17.9546 28.0964L17.9253 28.0798V27.9061L18.9815 27.9055V28.08L18.9514 28.0966C18.8157 28.1023 18.8134 28.1258 18.7794 28.1842C18.7402 28.2482 18.7286 28.399 18.7286 28.6185V29.6512H20.9927V28.6185C20.9927 28.399 20.9811 28.2482 20.941 28.1842C20.9071 28.1258 20.9002 28.1021 20.7645 28.0966L20.7344 28.08V27.9063L21.7913 27.9057V28.0802L21.7613 28.0967C21.6256 28.1024 21.6148 28.1259 21.5809 28.1843C21.5424 28.2483 21.53 28.3991 21.53 28.6186L21.5301 31.2214ZM9.9727 31.9346V31.7601V31.9346ZM9.9727 31.9346V31.7601V31.9346ZM10.288 28.1899H9.39221C9.22184 28.1899 9.17636 28.2411 9.16556 28.3801L8.93121 28.3827L8.92813 27.905H12.1929L12.1916 28.3787L11.9557 28.38C11.9441 28.241 11.8994 28.1897 11.7291 28.1897H10.8233L10.8295 31.2215C10.8295 31.6479 10.9027 31.76 11.1478 31.76V31.9345L9.9727 31.9346V31.7601C10.3026 31.7601 10.2914 31.6447 10.2914 31.2215L10.288 28.1899Z" fill="black"/>
<path d="M0.911701 0.966575V1.76638V0.966575ZM63.1197 1.70915V0.966196H60.4346C59.6298 0.969355 58.9669 0.970618 58.5961 0.970618V1.70647C59.3916 1.70647 59.4225 2.13834 59.4225 4.05139V19.7316C59.4225 21.7102 59.4055 21.9715 58.5961 21.9715V22.7145H60.5549C61.4214 22.712 62.7481 22.7101 63.1197 22.7101V21.9711C62.3249 21.9711 62.294 21.5423 62.294 19.6293V3.94907C62.294 1.97049 62.3103 1.70915 63.1197 1.70915ZM96.1779 22.7151V21.913C97.0204 21.913 96.9919 21.5829 96.9919 19.7733C96.9919 13.3765 96.9772 13.0149 97.0173 3.47014C97.0173 2.01028 97.025 1.75842 96.1778 1.75842V0.971249H99.771C99.771 0.971249 101.221 2.93641 101.614 3.47645L104.668 7.36966L109.122 12.928C110.547 14.7005 111.693 16.0948 112.559 17.1126C113.108 17.7845 113.49 18.3142 113.864 18.7011C113.864 18.7011 113.883 5.19843 113.883 3.85464C113.883 1.90922 113.873 1.76395 113.144 1.76395V0.971249H116.088V1.75842C115.369 1.75842 115.361 1.84764 115.361 3.86175V22.7143H113.835L98.482 4.17125C98.482 4.17125 98.4681 18.4216 98.4681 19.7946C98.4681 21.6248 98.5074 21.9145 99.2367 21.9145V22.7151H96.1779ZM94.1507 19.8603C93.8639 21.2838 93.0946 21.2752 91.8727 21.2752H89.1777H83.0676V12.2436H87.6166C90.2222 12.2436 90.4219 12.2474 90.4219 13.0742H91.3208V9.99819H90.4273C90.4273 10.8209 90.2199 10.8209 87.5141 10.8209H83.0676V5.61705C83.0876 4.6246 83.0676 3.56109 83.0676 2.42416C83.497 2.42416 90.516 2.421 91.3593 2.421C92.622 2.421 93.5325 2.39573 93.5325 3.3566H94.3573L94.7667 0.969828H81.5382H79.412V1.76963C80.2168 1.76963 80.2022 1.95991 80.2022 4.04824C80.2022 6.13814 80.2284 18.417 80.2284 19.7332C80.2284 21.4568 80.2168 21.9147 78.2657 21.9147C78.0313 21.9147 77.8139 21.8839 77.6027 21.8215C77.4007 21.7331 77.245 21.6052 77.1425 21.542C76.9436 21.4196 76.1195 20.6656 74.6733 19.2792L65.694 10.6859C65.694 10.6859 73.4191 1.77516 74.5184 1.77516C74.8568 1.77516 74.2085 1.76947 75.1575 1.76947V0.973618H72.753L62.7468 11.7753L63.1624 12.2008L69.9578 18.7327L71.4988 20.2494C72.9365 21.6595 73.9996 22.7175 73.9996 22.7175L76.2352 22.7162V22.7175H78.2695C78.8338 22.7175 78.2695 22.7162 78.2695 22.7162C80.7534 22.7162 81.3978 22.7099 81.5273 22.7099C90.0773 22.7178 91.2321 22.7178 91.6469 22.7178C92.0462 22.7178 94.7667 22.7146 94.7667 22.7146L95.1667 19.8605L94.1507 19.8603ZM40.6365 21.1552H44.2235C48.0741 21.1552 49.3337 20.4517 50.0167 20.0428C50.6997 19.6346 51.3596 19.033 51.9979 18.2379C52.6354 17.4412 53.1257 16.4243 53.4696 15.1855C53.8141 13.946 53.9861 12.663 53.9861 11.3357C53.9861 9.43928 53.6538 7.80888 52.9916 6.44693C52.3286 5.08498 51.3296 4.04279 49.9944 3.31878C48.6584 2.59398 46.6048 2.40292 40.6111 2.40292C40.5841 2.90348 40.6111 12.254 40.6111 12.254L40.6365 21.1552ZM37.0079 22.7154V21.9716C37.8173 21.9716 37.8335 21.7103 37.8335 19.7317V4.05147C37.8335 2.13842 37.8027 1.70654 37.0079 1.70654V0.971483C38.5505 0.971483 45.1609 0.939902 45.9772 0.939902C48.4148 0.939902 50.3752 1.25887 51.8576 1.89603C53.3408 2.53398 54.5989 3.60222 55.6342 5.10234C56.668 6.60247 57.186 8.43262 57.186 10.5952C57.186 12.1466 56.9417 13.6009 56.4544 14.9566C55.9665 16.3138 55.3043 17.4997 54.4694 18.5142C53.6338 19.5296 52.738 20.3325 51.7828 20.9247C50.8277 21.5168 49.8248 21.9621 48.7748 22.2629C47.7249 22.5646 46.2848 22.7154 44.4547 22.7154H37.0079ZM34.696 19.8583C34.4085 21.2811 33.6399 21.2716 32.418 21.2716H29.7222H23.6121V12.2409H28.1619C30.7668 12.2409 30.9664 12.2447 30.9664 13.0715H31.7558V9.99622H30.9726C30.9726 10.8181 30.7652 10.8181 28.0594 10.8181H23.6121V5.61428C23.6329 4.62104 23.6121 3.55911 23.6121 2.42139C24.0423 2.42139 31.0605 2.41886 31.9046 2.41886C33.1665 2.41886 34.0777 2.39284 34.0777 3.35447H34.9026L35.3112 0.966114H22.0834H19.9573V1.76671C20.7613 1.76671 20.7475 1.95698 20.7475 4.0461C20.7475 6.13522 20.8346 18.4133 20.8346 19.7295C20.8346 21.453 20.7613 21.911 18.811 21.911C17.7132 21.911 16.9601 21.3109 15.6657 19.3213L11.9053 14.0693C10.9803 12.8344 10.3936 12.0394 10.1446 11.6825C11.5129 11.3754 12.6238 10.9419 13.4772 10.3798C14.3313 9.81762 14.9835 9.11257 15.4329 8.2646C15.8824 7.41664 16.1075 6.56394 16.1075 5.70571C16.1075 4.7859 15.8677 3.93557 15.389 3.15392C14.9103 2.37228 14.2342 1.80855 13.3615 1.46115C12.4889 1.11376 11.0997 0.93927 9.19486 0.93927C8.94432 0.93927 1.32028 0.966575 0.911701 0.966575V1.76638C1.74658 1.76638 1.72954 2.44255 1.72954 4.04768C1.72954 5.37489 1.72954 19.4381 1.72954 19.6521C1.72954 21.2501 1.72893 21.9133 0.917788 21.9133V22.7147H5.33501V21.911C4.5325 21.911 4.5325 21.2225 4.5325 19.8345C4.5325 18.5168 4.53867 2.5894 4.53867 2.03278C5.59557 2.03278 7.11962 2.03657 8.14799 2.03657C9.78537 2.03657 11.0088 2.40844 11.8167 3.14982C12.6253 3.89198 13.0308 4.96102 13.0308 6.21875C13.0308 7.66282 12.5613 8.82423 11.6255 9.70377C10.6881 10.5833 9.31281 11.0231 7.49889 11.0231C7.22986 11.0231 6.8367 11.0089 6.31866 10.9773L6.1691 11.436C7.11422 12.5477 8.10868 13.7849 9.15323 15.1492C9.80002 15.9751 10.5455 17.0038 11.3911 18.2371C12.9137 20.4581 13.9975 21.9503 14.6443 22.7146L35.3112 22.7058L35.712 19.858L34.696 19.8583Z" fill="black"/>
</g>
<defs>
<clipPath id="clip0_393_1155">
<rect width="117" height="33" fill="white"/>
</clipPath>
</defs>
</svg>
