<svg width="111" height="26" viewBox="0 0 111 26" fill="none" xmlns="http://www.w3.org/2000/svg">
<g clip-path="url(#clip0_393_1111)">
<path d="M95.5669 0C89.8007 0 85.052 4.53968 85.052 10.2349C85.052 15.8476 89.7159 20.4698 95.5669 20.4698C101.333 20.4698 106.082 15.9302 106.082 10.2349C106.082 4.53968 101.333 0 95.5669 0ZM103.707 4.53968C103.199 4.86984 102.605 5.2 102.012 5.53016C101.672 4.86984 101.248 4.20952 100.74 3.63175C101.164 3.38413 101.588 3.05397 101.927 2.80635C102.69 3.21905 103.283 3.87937 103.707 4.53968ZM99.298 1.15556C100.146 1.48571 100.909 1.89841 101.672 2.47619C101.333 2.80635 100.909 3.05397 100.485 3.30159C99.9764 2.72381 99.3828 2.22857 98.7892 1.73333C98.9588 1.48571 99.1284 1.32063 99.298 1.15556ZM100.146 3.46667C99.5524 3.79683 98.9588 3.9619 98.3652 4.20952C98.1108 3.63175 97.8564 3.05397 97.5172 2.55873C97.8564 2.39365 98.1956 2.22857 98.45 1.98095C99.0436 2.39365 99.6372 2.88889 100.146 3.46667ZM98.874 0.990476C98.7044 1.15556 98.5348 1.32063 98.45 1.48571C97.8564 1.15556 97.3476 0.825397 96.6693 0.577778C97.4324 0.577778 98.1956 0.742857 98.874 0.990476ZM98.1108 1.73333C97.8564 1.89841 97.602 2.06349 97.3476 2.14603C97.0085 1.65079 96.6693 1.2381 96.3301 0.742857C96.9237 0.990476 97.5172 1.32063 98.1108 1.73333ZM95.7365 0.825397C96.1605 1.2381 96.4997 1.73333 96.8389 2.31111C96.4997 2.39365 96.1605 2.47619 95.7365 2.47619V0.825397ZM95.7365 2.88889C96.1605 2.88889 96.6693 2.80635 97.0933 2.64127C97.4324 3.13651 97.6868 3.71429 97.9412 4.29206C97.2628 4.45714 96.4997 4.53968 95.7365 4.62222V2.88889ZM95.3125 0.825397V2.47619C94.9733 2.47619 94.6341 2.39365 94.2101 2.31111C94.6341 1.81587 94.9733 1.32063 95.3125 0.825397ZM93.8709 2.14603C93.6166 2.06349 93.2774 1.89841 93.1078 1.73333C93.7014 1.40317 94.2949 1.07302 94.8885 0.825397C94.4645 1.2381 94.1253 1.65079 93.8709 2.14603ZM94.4645 0.495238C93.8709 0.742857 93.2774 1.07302 92.6838 1.40317C92.5142 1.2381 92.3446 1.07302 92.2598 0.907937C92.9382 0.742857 93.7014 0.577778 94.4645 0.495238ZM101.672 17.9937C100.316 17.2508 100.231 16.1778 100.316 15.8476C100.4 15.4349 100.655 15.6 100.824 15.6C101.757 15.6 102.69 15.3524 103.877 14.1143C105.234 12.7937 105.658 9.82222 103.538 7.92381C101.333 5.86032 98.9588 6.19048 97.4324 8.08889C97.0933 8.50159 96.3301 8.74921 95.7365 8.74921C94.7189 8.74921 95.3973 9.49206 95.3973 9.65714C95.3973 9.82222 95.2277 9.90476 95.1429 9.90476C94.8037 9.82222 94.9733 10.3175 94.9733 10.4C94.9733 10.4825 94.8037 10.6476 94.8037 10.6476C94.3797 10.6476 94.4645 10.9778 94.5493 11.1429C94.5493 11.2254 94.5493 11.3905 94.3797 11.473C94.2101 11.5556 94.1253 11.8857 94.1253 12.1333C94.1253 12.546 94.5493 12.8762 95.2277 13.3714C95.9061 13.8667 95.9909 14.3619 95.9909 14.6921C95.9909 15.0222 96.0757 15.6 96.1605 15.9302C96.3301 16.3429 96.3301 17.1683 95.3973 17.1683C94.2101 17.2508 92.175 18.0762 92.0054 18.1587C91.327 18.4063 90.479 18.4889 89.8007 18.3238C89.4615 18.0762 89.1223 17.8286 88.7831 17.4984C88.6135 17.0857 88.8679 16.5905 89.1223 16.2603C89.5463 16.673 90.0551 16.5905 90.3942 16.5905C90.7334 16.5905 92.2598 16.3429 92.5142 16.2603C92.7686 16.1778 92.8534 16.1778 92.9382 16.2603C93.5318 16.5079 94.3797 16.5079 94.7189 15.4349C95.0581 14.2794 94.2949 14.6095 94.1253 14.6921C94.0405 14.7746 93.8709 14.6921 93.9557 14.6095C94.1253 14.3619 93.8709 14.3619 93.7861 14.3619C93.447 14.3619 93.023 14.6921 92.9382 14.7746C92.7686 14.8571 92.6838 14.8571 92.599 14.8571C92.175 14.6095 90.903 14.9397 90.479 14.2794C90.479 14.1143 90.1399 11.3905 89.9703 10.8952C89.9703 10.8127 89.8855 10.6476 90.0551 10.4825C90.3942 9.9873 91.2422 10.4825 91.751 10.4825C92.3446 10.4825 92.4294 10.2349 92.599 10.0698C92.7686 9.90476 92.8534 9.9873 92.9382 9.90476C93.023 9.82222 92.9382 9.73968 92.9382 9.65714C92.9382 9.5746 93.023 9.65714 93.1078 9.5746C93.1926 9.49206 93.1078 9.32698 93.1078 9.24444C93.2774 8.99683 93.6166 9.16191 93.447 8.66667C93.3622 8.33651 93.5318 8.00635 93.7014 7.84127C93.9557 7.51111 95.0581 6.0254 93.1926 4.45714C91.4118 2.97143 89.5463 3.13651 88.3591 4.3746C87.1719 5.6127 87.7655 7.42857 87.8503 7.92381C87.9351 8.41905 87.5959 8.83175 87.1719 8.99683C86.8328 9.1619 86.0696 9.65714 85.5608 10.0698C85.6456 6.10794 88.1047 2.64127 91.8358 1.2381C92.0054 1.40317 92.175 1.65079 92.3446 1.81587C91.9206 2.14603 90.9878 2.88889 90.9878 2.88889C90.9878 2.88889 91.0726 2.88889 91.2422 2.97143C91.327 2.97143 91.4966 3.05397 91.4966 3.05397C91.4966 3.05397 92.2598 2.39365 92.6838 2.14603C92.9382 2.39365 93.2774 2.55873 93.6166 2.72381C93.447 3.05397 92.9382 3.87936 92.9382 3.87936C92.9382 3.87936 93.023 3.96191 93.1078 3.96191C93.1926 4.04444 93.2774 4.04444 93.2774 4.04444C93.2774 4.04444 93.7862 3.13651 93.9557 2.80635C94.3797 2.97143 94.8037 3.05397 95.2277 3.05397V4.70476C94.9733 4.70476 94.3797 4.70476 94.1253 4.62222H93.9557L94.0405 4.7873C94.1253 4.86984 94.1253 4.95238 94.2101 5.03492C94.3797 5.03492 94.9733 5.03492 95.2277 5.03492V8.08889H95.6517V7.34603C96.3301 7.34603 96.8389 7.26349 97.4324 7.18095L98.026 6.68571H97.6868C97.0085 6.76825 96.4149 6.85079 95.9061 6.85079C95.9061 6.85079 95.7365 6.85079 95.6517 6.85079V4.95238C96.4149 4.95238 97.2628 4.86984 98.026 4.62222C98.1956 5.11746 98.6196 6.35556 98.6196 6.35556L99.0436 6.19048C99.0436 6.19048 98.6196 4.95238 98.45 4.45714C99.1284 4.29206 99.722 3.9619 100.316 3.71429C100.824 4.29206 101.248 4.95238 101.588 5.6127C101.248 5.77778 100.74 5.94286 100.74 5.94286C101.164 6.0254 101.503 6.10794 101.503 6.10794C101.503 6.10794 101.672 6.0254 101.757 6.0254C101.757 6.10794 101.842 6.27302 101.842 6.27302L102.436 6.52064L102.351 6.35556C102.351 6.35556 102.181 5.94286 102.096 5.86032C102.69 5.6127 103.283 5.28254 103.877 4.86984C104.979 6.4381 105.488 8.33651 105.488 10.2349C105.658 13.3714 104.047 16.1778 101.672 17.9937Z" fill="#009EDB"/>
<path d="M84.1192 2.72384L83.9496 2.88892C83.356 3.38415 81.9144 4.78733 82.1688 6.35558V6.43812L82.2536 6.76828L82.4232 6.6032C83.2712 5.86034 83.9496 4.53971 84.204 3.05399L84.2888 2.6413L84.1192 2.72384Z" fill="#009EDB"/>
<path d="M81.2361 5.36507L81.1513 5.53015C81.0665 5.77777 80.8969 6.35555 80.8121 7.01586C80.6425 8.00634 80.7273 9.49206 81.5753 10.5651L81.6601 10.7302L81.7449 10.8952L81.9145 10.2349C82.0841 9.07936 81.8297 6.68571 81.4057 5.61269L81.2361 5.28253V5.36507Z" fill="#009EDB"/>
<path d="M80.2185 9.49207V9.65714C80.1337 10.6476 80.2185 13.2064 82.3385 14.6095L82.5929 14.7746V14.4444C82.5929 13.454 81.4057 10.5651 80.5577 9.57461L80.3033 9.24445L80.2185 9.49207Z" fill="#009EDB"/>
<path d="M80.5576 14.0317V14.1968C80.8968 15.6825 82.2536 17.9936 84.4583 18.7365L84.7975 18.819L84.7127 18.4889C84.2887 17.4158 82.1688 14.8571 80.812 14.0317L80.5576 13.8666V14.0317Z" fill="#009EDB"/>
<path d="M85.0519 4.95235L84.7976 5.03489C83.1864 6.02537 82.4232 7.18092 82.4232 8.66664V8.9968L82.6776 8.83172C83.5256 8.08886 84.7128 6.27299 84.9671 5.28251L85.0519 4.86981V4.95235Z" fill="#009EDB"/>
<path d="M84.0344 8.08889L83.9496 8.25397C83.5256 8.66667 82.1689 10.0698 82.2537 11.8032C82.2537 12.0508 82.3385 12.381 82.4233 12.6286L82.5081 12.8762L82.6777 12.6286C83.3561 11.7206 84.204 9.40952 84.1192 8.33651V8.00635L84.0344 8.08889Z" fill="#009EDB"/>
<path d="M84.1192 11.1428L84.0344 11.3079C83.356 12.2984 83.0168 13.2889 83.0168 14.2794C83.0168 14.9397 83.2712 15.6 83.6952 16.2603L83.8648 16.5079L83.9496 16.2603C84.204 15.6825 84.4584 13.9492 84.4584 12.546C84.4584 12.0508 84.3736 11.6381 84.2888 11.3905L84.204 11.0603L84.1192 11.1428Z" fill="#009EDB"/>
<path d="M84.8824 14.3619L84.7976 14.527C84.628 15.1873 84.4584 15.7651 84.5432 16.4254C84.5432 17.746 85.2216 18.8191 86.4087 19.5619L86.5783 19.6445L86.6631 19.3968V19.1492C86.6631 18.0762 85.8152 15.2699 85.1368 14.4445L84.9672 14.1968L84.8824 14.3619Z" fill="#009EDB"/>
<path d="M82.5929 18.654L82.6776 18.819C83.5256 20.2222 85.052 22.1206 87.8503 21.6254H88.1047L87.9351 21.4603C87.4263 20.7174 84.0344 18.819 82.8472 18.654L82.5081 18.5714L82.5929 18.654Z" fill="#009EDB"/>
<path d="M86.748 22.2857L86.324 22.3683L86.748 22.5334C88.5287 23.2762 90.7334 23.4413 92.0902 23.0286C92.599 22.8635 92.8534 22.6159 93.1926 22.2857C95.4821 22.5334 97.602 24.3492 98.874 25.8349L98.9588 25.9175H99.0436C99.2132 25.8349 99.3828 25.6699 99.4676 25.5873L99.5524 25.5048L99.4676 25.4222C98.1956 23.7714 96.1605 22.781 96.0757 22.6984C94.2101 21.873 90.9878 21.2127 86.748 22.2857Z" fill="#009EDB"/>
<path d="M86.8327 17.6635V17.8286C87.0871 19.4793 87.7655 21.6254 90.6486 21.3778H90.8182L90.7334 21.2127C90.5638 20.4698 87.9351 18.3238 87.0023 17.746L86.7479 17.5809L86.8327 17.6635Z" fill="#009EDB"/>
<path d="M106.845 2.55872L106.93 2.97141C107.184 4.45713 107.863 5.77776 108.711 6.52062L108.88 6.6857L108.965 6.35554V6.273C109.219 4.70475 107.778 3.30157 107.184 2.80634L107.015 2.64126L106.845 2.55872Z" fill="#009EDB"/>
<path d="M109.813 5.20001L109.643 5.53017C109.219 6.60319 109.05 8.99684 109.134 10.1524L109.304 10.8127L109.389 10.7302L109.474 10.5651C110.406 9.49208 110.406 8.0889 110.237 7.01589C110.152 6.27303 109.982 5.77779 109.898 5.53017L109.813 5.36509V5.20001Z" fill="#009EDB"/>
<path d="M110.915 9.32697L110.661 9.65712C109.813 10.7301 108.626 13.5365 108.626 14.527V14.8571L108.88 14.692C111 13.3714 111.085 10.8127 111 9.73966V9.57458L110.915 9.32697Z" fill="#009EDB"/>
<path d="M110.576 13.8666L110.237 14.0317C108.88 14.8571 106.76 17.4158 106.336 18.4889L106.251 18.819L106.591 18.7365C108.795 18.0762 110.237 15.6825 110.491 14.1968V14.0317L110.576 13.8666Z" fill="#009EDB"/>
<path d="M106.082 4.78729L106.167 5.19999C106.506 6.27301 107.523 8.08888 108.456 8.83174L108.711 8.99682V8.66666C108.795 7.18094 108.032 6.02539 106.421 5.03491L106.251 4.95237L106.082 4.78729Z" fill="#009EDB"/>
<path d="M107.015 8.00635V8.33651C106.93 9.40952 107.863 11.8032 108.456 12.6286L108.626 12.8762L108.711 12.6286C108.795 12.2984 108.88 12.0508 108.88 11.8032C108.965 10.0698 107.608 8.66667 107.184 8.25397L107.099 8.17143L107.015 8.00635Z" fill="#009EDB"/>
<path d="M106.93 10.9778L106.845 11.3079C106.76 11.5556 106.675 11.9683 106.675 12.4635C106.675 13.8667 106.845 15.6 107.184 16.1778L107.269 16.4254L107.438 16.1778C107.862 15.6 108.117 14.9397 108.117 14.1968C108.117 13.2889 107.778 12.2159 107.099 11.2254L107.014 11.0603L106.93 10.9778Z" fill="#009EDB"/>
<path d="M106.167 14.1968L105.997 14.4445C105.319 15.2699 104.471 18.0762 104.471 19.1492C104.471 19.1492 104.471 19.3143 104.471 19.3968L104.555 19.6445L104.725 19.5619C105.912 18.8191 106.506 17.746 106.591 16.4254C106.591 15.8476 106.506 15.1873 106.336 14.527L106.251 14.3619L106.167 14.1968Z" fill="#009EDB"/>
<path d="M108.626 18.4889L108.286 18.5714C107.099 18.7365 103.707 20.6349 103.199 21.3778L103.029 21.5429H103.283C106.082 22.0381 107.608 20.1397 108.456 18.7365L108.541 18.5714L108.626 18.4889Z" fill="#009EDB"/>
<path d="M95.1428 22.6984C95.058 22.6984 93.0229 23.7714 91.7509 25.4222L91.6661 25.5048L91.7509 25.5873C91.8357 25.6699 92.0901 25.8349 92.1749 25.9175H92.2597L92.3445 25.8349C93.6165 24.3492 95.7364 22.4508 98.026 22.2857C98.3651 22.6159 98.7043 22.8635 99.1283 23.0286C100.4 23.4413 102.69 23.2762 104.471 22.5334L104.895 22.3683L104.471 22.2857C100.146 21.2127 96.9236 21.873 95.1428 22.6984Z" fill="#009EDB"/>
<path d="M104.301 17.4984L104.047 17.6635C103.114 18.2413 100.57 20.3873 100.316 21.1302L100.231 21.2952H100.4C103.199 21.5429 103.877 19.3968 104.216 17.746V17.581L104.301 17.4984Z" fill="#009EDB"/>
<path d="M32.7318 0.990479H36.2933V4.12699H32.7318V0.990479ZM33.071 7.75873H36.0389V23.1111H33.071V7.75873Z" fill="#009EDB"/>
<path d="M10.5997 7.75873H13.5676V23.1111H10.6845V20.8825H10.5997C9.41253 22.781 7.37739 23.6063 5.17265 23.6063C1.86555 23.6063 0 21.1302 0 18.0762V7.75873H2.96791V16.8381C2.96791 19.4794 3.5615 21.4603 6.44461 21.4603C7.63178 21.4603 9.32773 20.8825 9.92131 19.2317C10.5149 17.8286 10.5149 16.0127 10.5149 15.6V7.75873H10.5997Z" fill="#009EDB"/>
<path d="M19.5034 9.9873C20.6058 8.08889 22.7257 7.26349 24.3369 7.26349C25.4393 7.26349 30.2727 7.51111 30.2727 12.4635V23.0286H27.3048V13.3714C27.3048 10.8127 26.2024 9.49206 23.6585 9.49206C23.6585 9.49206 22.0474 9.40952 20.7754 10.6476C20.3514 11.0603 19.5034 11.7206 19.5034 14.7746V23.1111H16.5355V7.75873H19.5034V9.9873Z" fill="#009EDB"/>
<path d="M48.5042 12.6286C48.3346 10.7302 47.4019 9.40952 45.2819 9.40952C42.4836 9.40952 41.3812 11.8032 41.3812 15.3524C41.3812 18.9016 42.4836 21.2952 45.2819 21.2952C47.2323 21.2952 48.4194 20.0571 48.589 17.8286H51.5569C51.3026 21.2952 48.6738 23.3587 45.1971 23.3587C40.1941 23.3587 38.1589 19.8921 38.1589 15.4349C38.1589 10.9778 40.4485 7.26349 45.4515 7.26349C48.7586 7.26349 51.2178 9.32698 51.3874 12.6286H48.5042Z" fill="#009EDB"/>
<path d="M55.9664 15.9301C55.712 18.5714 56.8991 21.3778 59.8671 21.3778C62.1566 21.3778 63.3438 20.4698 63.6829 18.2412H66.8205C66.3117 21.7079 63.5981 23.4412 59.8671 23.4412C54.864 23.4412 52.8289 19.9746 52.8289 15.5174C52.8289 11.0603 55.1184 7.34601 60.1214 7.34601C64.7853 7.42855 66.9901 10.3174 66.9901 14.527V15.9301H55.9664ZM63.9373 13.9492C64.0221 11.3905 62.835 9.4095 59.9519 9.4095C57.4927 9.4095 56.0512 11.473 56.0512 13.9492H63.9373Z" fill="#009EDB"/>
<path d="M70.382 22.946V9.73968H67.6685V7.75873H70.382V4.45714C70.4668 1.15556 73.0955 0.24762 75.3002 0.24762C75.9786 0.24762 76.7418 0.412699 77.4202 0.577778V2.97143C76.9114 2.97143 76.4026 2.88889 75.8938 2.88889C74.1979 2.88889 73.2651 3.30159 73.3499 4.95238V7.75873H76.9962V9.73968H73.3499V22.946H70.382Z" fill="#009EDB"/>
</g>
<defs>
<clipPath id="clip0_393_1111">
<rect width="111" height="26" fill="white"/>
</clipPath>
</defs>
</svg>
