<svg width="161" height="36" viewBox="0 0 161 36" fill="none" xmlns="http://www.w3.org/2000/svg">
<g clip-path="url(#clip0_393_1158)">
<path d="M54.6947 15.2549C53.8227 14.4102 52.6601 13.9367 51.4469 13.9623C49.2606 13.9623 47.6178 15.7156 47.6178 17.9936C47.6178 20.2716 49.2859 22.0249 51.548 22.0249C52.5842 22.0249 53.7216 21.7305 54.4672 21.2442V19.0302H51.2068V17.3665H56.2617V22.1273C55.1875 23.1255 53.2287 23.7526 51.548 23.7526C48.3002 23.7526 45.7727 21.193 45.7727 18.0064C45.7601 14.8454 48.2749 12.273 51.3963 12.2602C51.409 12.2602 51.4342 12.2602 51.4469 12.2602C53.2287 12.2602 54.7705 12.9001 55.8826 13.9751L54.6947 15.2549ZM61.62 18.7743V21.7817H68.1029V23.4582H59.8002V12.529H68.1029V14.2055H61.62V17.1106H67.1046V18.7871L61.62 18.7743ZM74.7375 12.529H76.709L80.3485 21.257L83.9881 12.529H85.871L81.2458 23.4582H79.3628L74.7375 12.529ZM90.0793 18.7743V21.7817H96.5623V23.4582H88.2595V12.529H96.5623V14.2055H90.0793V17.1106H95.5639V18.7871L90.0793 18.7743ZM107.291 23.4582L104.953 19.3502H101.781V23.4582H99.9617V12.529H105.712C107.822 12.529 109.389 14.0007 109.389 15.946C109.389 17.5073 108.378 18.7615 106.9 19.1966L109.389 23.4582H107.291ZM107.544 15.946C107.544 14.8582 106.849 14.1927 105.712 14.1927H101.781V17.6737H105.712C106.849 17.6737 107.544 17.021 107.544 15.946ZM112.877 12.529H114.785L120.826 20.6299V12.529H122.608V23.4582H120.775L114.659 15.3061V23.4582H112.877V12.529ZM125.856 17.9936C125.856 14.807 128.396 12.2218 131.542 12.209C134.689 12.209 137.242 14.7814 137.255 17.968C137.255 21.1546 134.714 23.7398 131.568 23.7526H131.555C128.421 23.7654 125.868 21.2058 125.856 18.032C125.856 18.0192 125.856 18.0064 125.856 17.9936ZM135.41 17.9936C135.41 15.7156 133.729 13.9623 131.555 13.9623C129.382 13.9623 127.701 15.7156 127.701 17.9936C127.701 20.2716 129.382 22.0377 131.555 22.0377C133.729 22.0377 135.41 20.2716 135.41 17.9936ZM138.581 12.529H140.553L144.192 21.257L147.832 12.529H149.715L145.09 23.4582H143.207L138.581 12.529ZM161 23.4582H159.041L157.904 20.7067H152.786L151.649 23.4582H149.791L154.416 12.529H156.388L161 23.4582ZM157.209 19.043L155.351 14.5126L153.494 19.043H157.209ZM21.7491 13.3096C21.7491 11.262 23.1139 9.27835 23.8595 9.64948C24.7062 10.0846 23.215 12.0171 21.7491 13.3096ZM12.448 14.0647C12.448 12.4138 14.0529 9.29115 15.026 9.62389C16.1886 10.0078 14.0656 13.1561 12.448 14.0647ZM10.8178 25.8258C10.0848 25.8642 9.59193 25.3779 9.59193 24.5844C9.59193 22.4344 12.5238 20.3996 14.7353 19.299C14.3436 22.2936 13.3452 25.7106 10.8178 25.8258ZM24.3524 18.851C22.6842 18.851 21.3952 20.0924 21.3952 21.5898C21.3952 22.8311 22.1282 23.8294 23.1139 23.8294C23.4551 23.8294 23.7963 23.6246 23.7963 23.1767C23.7963 22.524 22.9496 22.3704 23.0128 21.3978C23.0507 20.7579 23.6447 20.3356 24.2386 20.3356C25.4139 20.3356 25.97 21.5002 25.97 22.6904C25.9194 24.5332 24.5798 25.813 23.0128 25.813C20.9403 25.813 19.626 23.8166 19.626 21.6793C19.626 18.4927 21.6859 17.2385 22.7727 16.9442C22.7853 16.9442 25.6035 17.4561 25.515 16.1891C25.4771 15.6388 24.6683 15.4213 24.0744 15.3957C23.632 15.3957 23.1897 15.4597 22.7601 15.6132C22.4062 15.4085 22.1535 15.0885 22.0271 14.6918C24.0491 13.1433 25.4645 11.6459 25.4645 9.95663C25.4645 9.06079 24.8705 8.26733 23.7458 8.26733C21.7238 8.26733 20.2073 10.8653 20.2073 13.2073C20.1947 13.5912 20.22 13.9751 20.3084 14.359C19.032 15.3061 18.0842 15.8948 16.3529 16.9442C16.3782 16.4323 16.4414 15.9332 16.5425 15.4341C17.1364 14.7814 17.9452 13.8215 17.9452 13.0665C17.9452 12.7209 17.743 12.4138 17.3513 12.4138C16.3656 12.4138 15.6326 13.9111 15.4304 14.9605C14.9881 15.5108 14.1035 16.2019 13.3579 16.2019C12.7639 16.2019 12.5744 15.6516 12.5238 15.4597C14.3941 14.807 16.7068 12.2218 16.7068 9.87984C16.7068 9.38073 16.5046 8.28013 15.0386 8.28013C12.8271 8.28013 10.9568 11.6203 10.9568 14.2183C10.1733 14.2183 9.86996 13.3736 9.86996 12.7209C9.86996 12.0683 10.1101 11.4284 10.1101 11.2236C10.1101 11.0188 10.009 10.7757 9.71831 10.7757C8.98534 10.7757 8.54303 11.7739 8.54303 12.9257C8.59358 14.5254 9.62985 15.5236 11.0073 15.6132C11.2095 16.5603 12.0436 17.4561 13.0798 17.4561C13.7244 17.4561 14.5079 17.2513 15.0513 16.7522C15.0007 17.0978 14.9502 17.4049 14.8996 17.6993C12.7386 18.851 11.159 19.6445 9.73094 20.9371C8.60622 21.9865 7.96171 23.3814 7.96171 24.482C7.96171 25.9794 8.89688 27.3743 10.8178 27.3743C13.0798 27.3743 14.7985 25.5315 15.6326 22.9847C16.0244 21.7817 16.1886 20.0412 16.2771 18.4543C17.8315 17.5841 19.348 16.6114 20.7886 15.562C20.915 15.7924 21.0793 15.9972 21.2815 16.1635C20.2452 16.7138 17.7936 18.2624 17.7936 21.8969C17.7936 24.4948 19.5123 27.3871 22.9117 27.3871C25.7172 27.3871 27.6381 25.0451 27.6381 22.8055C27.6507 20.7323 26.5134 18.8383 24.3524 18.851ZM32.8068 23.1255C32.7941 23.1383 32.7689 23.1639 32.7183 23.1511C32.6804 23.1383 32.6678 23.1127 32.6678 23.0871C33.0469 21.8457 33.2491 20.5531 33.2617 19.2478C33.2491 17.0594 32.3771 15.7028 31.2397 15.7028C30.5447 15.7028 30.0645 16.2019 30.0645 16.9442C30.0645 18.2879 31.682 18.3903 31.682 21.3338C31.682 22.5368 31.4419 23.6758 31.0375 24.93C29.2178 31.1625 23.4172 34.0547 17.7557 34.0547C15.1524 34.0547 13.2947 33.5172 12.7386 33.2613C12.7134 33.2357 12.7007 33.1973 12.7134 33.1589C12.726 33.1205 12.7639 33.0949 12.7892 33.1077C14.015 33.5044 15.2914 33.7092 16.5678 33.7092C18.7287 33.7092 20.0178 32.8134 20.0178 31.7128C20.0178 31.0345 19.487 30.4714 18.8046 30.4714C18.7919 30.4714 18.7919 30.4714 18.7793 30.4714C17.4524 30.4714 17.3513 32.1607 14.4952 32.1607C13.2694 32.1607 12.1826 31.9175 10.9062 31.508C4.80237 29.6139 1.89578 23.7782 1.90842 17.9936C1.90842 16.2659 2.1738 14.551 2.70457 12.9129C2.72985 12.8873 2.76776 12.8873 2.79303 12.9001C2.83095 12.9129 2.84358 12.9513 2.84358 12.9641C2.46446 14.2055 2.26226 15.498 2.24963 16.8034C2.24963 18.9918 3.13424 20.2972 4.2716 20.2972C4.91611 20.31 5.44688 19.7853 5.44688 19.1326C5.44688 19.1198 5.44688 19.107 5.44688 19.107C5.44688 17.7632 3.8293 17.6097 3.8293 14.7174C3.8293 13.476 4.06941 12.3754 4.4738 11.0828C6.34413 4.90153 12.0941 1.99645 17.7557 1.95805C20.3842 1.93246 22.6842 2.73871 22.7727 2.8027C22.798 2.8283 22.798 2.86669 22.7853 2.89229C22.7727 2.94348 22.7348 2.94348 22.7222 2.94348C22.6969 2.94348 21.193 2.30359 18.9309 2.30359C16.8205 2.30359 15.4936 3.19943 15.4936 4.35123C15.4936 5.00391 16.0117 5.54142 16.6689 5.55421C16.6941 5.55421 16.7068 5.55421 16.732 5.55421C18.059 5.55421 18.1601 3.90331 21.0161 3.90331C22.2419 3.90331 23.3287 4.14646 24.6051 4.55599C30.7595 6.45005 33.5524 12.337 33.6029 18.0192C33.6156 19.7341 33.3502 21.4746 32.8068 23.1255ZM17.7557 0.84465C8.40402 0.831852 0.821605 8.51049 0.808967 17.9808C0.79633 27.4511 8.37875 35.1426 17.7304 35.1426C27.082 35.1554 34.6771 27.4767 34.6771 18.0064V17.9936C34.6771 8.53608 27.1073 0.857448 17.7557 0.84465ZM17.7557 36C7.93644 35.9744 0.000176104 27.899 0.0254508 17.9552C0.0633629 8.04977 7.98699 0.0255955 17.7557 0C27.5496 0 35.5238 8.07537 35.5238 17.9936C35.5238 27.9118 27.5496 36 17.7557 36Z" fill="#005E60"/>
</g>
<defs>
<clipPath id="clip0_393_1158">
<rect width="161" height="36" fill="white"/>
</clipPath>
</defs>
</svg>
