<svg xmlns="http://www.w3.org/2000/svg">
<path d="M1.77641e-05 6.84011C0.00595532 7.07316 0.0757223 7.21418 0.166268 7.31511L5.10627 13.3951C5.33932 13.7246 5.86775 13.7766 6.19877 13.5094C6.52978 13.2422 6.5476 12.7435 6.28189 12.4451L2.35117 7.6001L16.7197 7.60011C17.1398 7.60011 17.4797 7.26018 17.4797 6.84011C17.4797 6.42002 17.1398 6.08011 16.7197 6.08011L2.35117 6.0801L6.2819 1.23511C6.58322 0.935263 6.49713 0.408302 6.17947 0.126266C5.93455 -0.0904513 5.2829 -0.022174 5.10628 0.285094L0.166278 6.36509C0.0371386 6.52244 -0.00146804 6.63972 1.77641e-05 6.84011Z"/>
</svg>
