<svg xmlns="http://www.w3.org/2000/svg">
<path d="M0.00696521 3.2844L0.00696521 3.29144L0.616965 23.2108L0.590754 26.6702C0.590754 34.6082 2.33261 39.9524 3.73128 44.2484C4.76065 47.4101 5.6518 50.1406 5.6518 53.138C5.6518 53.6349 6.06165 54.038 6.5668 54.038C7.07195 54.038 7.4818 53.6349 7.4818 53.138C7.4818 49.8591 6.55253 47.0042 5.47545 43.7C4.04335 39.3078 2.42069 34.3274 2.42069 26.6798L2.4469 23.1923L1.8369 3.2657C1.8369 2.90945 1.8369 2.11022 1.91792 1.8407C2.04659 1.81023 2.31585 1.79617 2.71854 1.79617C5.21094 1.79617 6.04256 5.31883 6.04256 6.26569C6.04256 6.2985 6.04494 6.33132 6.04732 6.36413L7.20534 16.8503L7.20534 28.6325C7.20534 28.9677 7.39359 29.2747 7.69621 29.4294L14.3062 32.8395C14.3848 32.8794 14.4658 32.9028 14.5468 32.9192L13.67 37.8904C13.5818 38.3779 13.9178 38.8466 14.4134 38.931C14.9114 39.0154 15.3856 38.6872 15.4714 38.1974L17.1465 28.703C17.4372 26.9827 17.7994 23.4905 17.8137 22.2602C17.8209 21.6157 17.9329 20.7719 18.419 20.4297C18.9051 20.0875 19.6914 20.2844 20.0321 20.3922C21.7811 20.8984 22.2195 23.5469 22.2791 25.6469L22.191 35.4557L22.2315 35.5869C22.2624 35.6901 25.372 45.9321 21.1092 52.6635C20.8423 53.0854 20.9734 53.6409 21.4023 53.9034C21.8312 54.1659 22.3959 54.037 22.6628 53.6151C24.6214 50.5214 25.2029 46.8627 25.2029 43.6167C25.2029 39.4472 24.245 35.9529 24.021 35.1957L24.1044 25.6287C23.9924 21.6584 22.7939 19.3149 20.5659 18.6723C19.3221 18.2762 18.1783 18.3816 17.3468 18.9676C16.9989 19.2137 16.7201 19.5324 16.5033 19.9215C15.9504 19.3988 15.269 19.0238 14.5065 18.8433C12.9291 18.4683 11.2587 19.0004 10.0721 20.2308L9.02844 21.2105L9.02844 16.8042C9.02844 16.7714 9.02605 16.7386 9.02367 16.7058L7.86565 6.2178C7.83944 4.08498 6.28105 -3.7398e-06 2.71401 -3.78233e-06C0.247782 -3.81174e-06 6.3315e-07 0.944519 6.052e-07 3.2883L0.00696521 3.2844ZM11.3731 21.4974C12.1475 20.6959 13.1364 20.363 14.0847 20.588C14.9664 20.7966 15.6645 21.4669 15.9791 22.3857C15.941 23.5763 15.624 26.731 15.3405 28.3977L14.8639 31.093L11.1705 29.1875L13.9489 25.5477C14.0728 25.386 14.1324 25.1961 14.1324 25.0086C14.1324 24.7344 14.0061 24.4649 13.7654 24.2891C13.3604 23.9891 12.7885 24.0712 12.4835 24.4696L9.52636 28.3438L9.02835 28.0883L9.02835 23.6938L11.3683 21.5001L11.3731 21.4974Z"/>
</svg>
