<svg viewBox="0 0 493 139" xmlns="http://www.w3.org/2000/svg">
    <path d="M0 136.8V29.4H77.925V51.75H27.675V114.825H78.3V136.8H0ZM19.575 92.85V72.75H71.55V92.85H19.575ZM29.4 22.65L40.8 0H63.675L46.425 22.65H29.4Z" />
    <path d="M114.785 136.8V40.875H142.385V136.8H114.785ZM84.2602 54.15V29.4H172.235V54.15H84.2602Z" />
    <path d="M160.969 136.8L202.519 29.4H227.344L268.894 136.8H240.619L215.119 67.8L214.219 65.25L213.319 67.8L187.519 136.8H160.969ZM182.569 116.175L188.944 99H239.944L246.469 116.175H182.569Z" />
    <path d="M288.223 136.8V40.875H315.823V136.8H288.223ZM257.698 54.15V29.4H345.673V54.15H257.698Z" />
    <path d="M393.21 138.375C385.26 138.375 378.41 137.475 372.66 135.675C366.96 133.825 362.135 131.15 358.185 127.65C354.285 124.15 351.36 120.325 349.41 116.175C347.46 111.975 346.485 109.875 346.485 109.875L369.21 101.925C369.21 101.925 369.785 103.15 370.935 105.6C372.085 108 373.71 110.125 375.81 111.975C377.91 113.775 380.41 115.225 383.31 116.325C386.26 117.425 389.635 117.975 393.435 117.975C398.235 117.975 401.985 116.95 404.685 114.9C407.435 112.85 408.81 109.925 408.81 106.125C408.81 102.325 407.26 99.45 404.16 97.5C401.11 95.5 394.71 93.2 384.96 90.6C372.46 87.3 363.76 83.025 358.86 77.775C353.96 72.475 351.51 66.1 351.51 58.65C351.51 49.55 355.185 42.15 362.535 36.45C369.885 30.7 379.71 27.825 392.01 27.825C398.91 27.825 404.785 28.575 409.635 30.075C414.485 31.575 418.76 33.925 422.46 37.125C426.21 40.275 429.06 43.625 431.01 47.175C432.96 50.675 433.935 52.425 433.935 52.425L412.185 60.525C412.185 60.525 411.535 59.5 410.235 57.45C408.935 55.35 407.435 53.575 405.735 52.125C404.085 50.625 402.21 49.525 400.11 48.825C398.01 48.125 395.535 47.775 392.685 47.775C388.335 47.775 384.785 48.65 382.035 50.4C379.335 52.1 377.985 54.475 377.985 57.525C377.985 60.325 379.485 62.7 382.485 64.65C385.485 66.6 392.285 69.05 402.885 72C414.935 75.3 423.385 79.65 428.235 85.05C433.085 90.4 435.51 97.15 435.51 105.3C435.51 115.6 431.585 123.7 423.735 129.6C415.935 135.45 405.76 138.375 393.21 138.375Z" />
    <path d="M441.141 136.92C440.752 136.92 440.421 136.787 440.149 136.52C439.882 136.248 439.749 135.917 439.749 135.528C439.749 135.144 439.882 134.819 440.149 134.552C440.421 134.285 440.752 134.152 441.141 134.152C441.536 134.152 441.866 134.285 442.133 134.552C442.405 134.819 442.541 135.144 442.541 135.528C442.541 135.917 442.405 136.248 442.133 136.52C441.866 136.787 441.536 136.92 441.141 136.92Z" />
    <path d="M447.474 137.072C446.898 137.072 446.394 137.008 445.962 136.88C445.536 136.752 445.155 136.565 444.819 136.32C444.488 136.069 444.221 135.803 444.018 135.52C443.821 135.237 443.723 135.096 443.723 135.096L445.13 134.096C445.13 134.096 445.205 134.197 445.354 134.4C445.504 134.603 445.685 134.784 445.898 134.944C446.117 135.104 446.36 135.227 446.626 135.312C446.893 135.392 447.205 135.432 447.562 135.432C448 135.432 448.349 135.352 448.611 135.192C448.872 135.032 449.003 134.8 449.003 134.496C449.003 134.229 448.885 134.021 448.651 133.872C448.416 133.717 447.893 133.547 447.082 133.36C446.016 133.109 445.25 132.773 444.786 132.352C444.322 131.931 444.09 131.392 444.09 130.736C444.09 129.989 444.405 129.387 445.034 128.928C445.669 128.469 446.467 128.24 447.427 128.24C447.907 128.24 448.341 128.291 448.73 128.392C449.125 128.493 449.475 128.643 449.779 128.84C450.088 129.032 450.338 129.24 450.53 129.464C450.722 129.688 450.819 129.8 450.819 129.8L449.466 130.816C449.466 130.816 449.4 130.744 449.267 130.6C449.133 130.451 448.968 130.32 448.771 130.208C448.579 130.091 448.368 130.005 448.138 129.952C447.914 129.899 447.672 129.872 447.41 129.872C447.016 129.872 446.696 129.952 446.451 130.112C446.205 130.267 446.082 130.456 446.082 130.68C446.082 130.904 446.187 131.096 446.395 131.256C446.603 131.411 447.152 131.595 448.043 131.808C449.093 132.059 449.851 132.395 450.315 132.816C450.779 133.232 451.01 133.755 451.01 134.384C451.01 135.189 450.682 135.84 450.026 136.336C449.376 136.827 448.525 137.072 447.474 137.072Z" />
    <path d="M455.792 137.072C454.976 137.072 454.331 136.848 453.856 136.4C453.387 135.952 453.152 135.296 453.152 134.432V126.28H455.288V134.128C455.288 134.533 455.374 134.835 455.544 135.032C455.715 135.224 455.968 135.323 456.304 135.328C456.411 135.328 456.523 135.317 456.64 135.296C456.758 135.269 456.899 135.227 457.064 135.168C457.235 135.104 457.32 135.072 457.32 135.072L457.424 136.744C457.424 136.744 457.326 136.779 457.128 136.848C456.931 136.917 456.728 136.971 456.52 137.008C456.312 137.051 456.07 137.072 455.792 137.072ZM451.824 130.208V128.52H457.32V130.208H451.824Z" />
    <path d="M462.012 137.072C461.041 137.072 460.286 136.797 459.747 136.248C459.214 135.693 458.948 134.912 458.948 133.904V128.52H461.083V133.536C461.083 134.149 461.225 134.613 461.508 134.928C461.79 135.237 462.196 135.392 462.724 135.392C463.268 135.392 463.723 135.189 464.091 134.784C464.465 134.373 464.651 133.872 464.651 133.28V128.52H466.796V136.8H464.772V134.696L465.747 135.664H464.715C464.475 136.075 464.115 136.413 463.635 136.68C463.161 136.941 462.62 137.072 462.012 137.072Z" />
    <path d="M472.303 137.072C471.172 137.072 470.234 136.669 469.487 135.864C468.746 135.053 468.375 133.989 468.375 132.672C468.375 131.36 468.751 130.296 469.503 129.48C470.255 128.664 471.199 128.256 472.335 128.256C472.916 128.256 473.442 128.381 473.911 128.632C474.386 128.877 474.74 129.197 474.975 129.592H475.031V125.256H477.151V136.8H475.095V135.392L475.335 135.728H475.039C474.783 136.128 474.412 136.453 473.927 136.704C473.442 136.949 472.9 137.072 472.303 137.072ZM472.791 135.272C473.447 135.272 473.994 135.029 474.431 134.544C474.868 134.059 475.087 133.432 475.087 132.664C475.087 131.891 474.866 131.264 474.423 130.784C473.98 130.304 473.436 130.064 472.791 130.064C472.13 130.064 471.58 130.304 471.143 130.784C470.706 131.264 470.487 131.891 470.487 132.664C470.487 133.427 470.703 134.053 471.135 134.544C471.572 135.029 472.124 135.272 472.791 135.272Z" />
    <path d="M479.326 136.8V128.52H481.462V136.8H479.326ZM480.398 127.072C480.046 127.072 479.748 126.952 479.502 126.712C479.257 126.467 479.134 126.171 479.134 125.824C479.134 125.467 479.257 125.171 479.502 124.936C479.748 124.701 480.046 124.584 480.398 124.584C480.761 124.584 481.06 124.701 481.294 124.936C481.529 125.171 481.646 125.467 481.646 125.824C481.646 126.171 481.526 126.467 481.286 126.712C481.052 126.952 480.756 127.072 480.398 127.072Z" />
    <path d="M487.613 137.072C486.291 137.072 485.208 136.656 484.365 135.824C483.528 134.987 483.109 133.933 483.109 132.664C483.109 131.373 483.531 130.315 484.373 129.488C485.221 128.656 486.301 128.24 487.613 128.24C488.92 128.24 489.995 128.659 490.837 129.496C491.685 130.328 492.109 131.384 492.109 132.664C492.109 133.933 491.688 134.987 490.845 135.824C490.008 136.656 488.931 137.072 487.613 137.072ZM487.613 135.248C488.296 135.248 488.861 135.008 489.309 134.528C489.763 134.043 489.989 133.419 489.989 132.656C489.989 131.893 489.763 131.272 489.309 130.792C488.856 130.312 488.291 130.072 487.613 130.072C486.92 130.072 486.347 130.312 485.893 130.792C485.445 131.272 485.221 131.893 485.221 132.656C485.221 133.419 485.445 134.043 485.893 134.528C486.347 135.008 486.92 135.248 487.613 135.248Z" />
</svg>