<svg xmlns="http://www.w3.org/2000/svg" viewBox="0 0 236 64"><path d="M4,56V14.47H31.52V23h-18V47.47H31.75V56Zm5.8-17V31.44H30.1V39Zm4.7-28.42,4-9.43h8.58l-5.82,9.43ZM47.24,56V19h9.6V56ZM35.82,23.32V14.47H68.18v8.85ZM65,56,81,14.47h8.7L105.63,56H95.33l-8.9-25.49-1.16-3.89h-.15l-1.19,3.89L75,56Zm7.91-8,2.44-6.67H94.55L97.1,48Zm41,8V19h9.6V56ZM102.49,23.32V14.47h32.36v8.85ZM152.78,56.9a20.9,20.9,0,0,1-7.14-1.13,14.62,14.62,0,0,1-5.19-3.19,15.33,15.33,0,0,1-3.16-4.44c-.72-1.58-1.07-2.38-1.07-2.38l8.15-3.19s.21.49.64,1.45a9.55,9.55,0,0,0,1.79,2.64,8.67,8.67,0,0,0,2.73,1.83,9.71,9.71,0,0,0,3.6.64,7.16,7.16,0,0,0,4.46-1.31,4.29,4.29,0,0,0,1.71-3.56,4,4,0,0,0-2.17-3.48,33.35,33.35,0,0,0-7.22-2.9q-6.27-2-9.17-4.91a10.24,10.24,0,0,1-2.9-7.42A10.58,10.58,0,0,1,142,17q4.14-3.4,10.82-3.4a19,19,0,0,1,6.32,1,13.53,13.53,0,0,1,4.73,2.73,12.81,12.81,0,0,1,2.95,3.65l1,1.86-7.86,3.13-.58-1A7,7,0,0,0,157.76,23a6.31,6.31,0,0,0-2.26-1.34,8.19,8.19,0,0,0-2.87-.46,6.68,6.68,0,0,0-3.94,1.07,3.26,3.26,0,0,0-1.51,2.81A3.44,3.44,0,0,0,148.75,28q1.56,1.16,7.42,2.9,6.62,1.94,9.54,5.22a11.36,11.36,0,0,1,3,7.89,11.44,11.44,0,0,1-4.44,9.42Q159.82,56.9,152.78,56.9Z"/><path d="M179.22,56.12a1.37,1.37,0,0,1-1.4-1.39,1.36,1.36,0,0,1,.4-1,1.42,1.42,0,0,1,1-.4,1.38,1.38,0,0,1,1,.4,1.33,1.33,0,0,1,.41,1,1.38,1.38,0,0,1-1.4,1.39Zm6.33.15a5.23,5.23,0,0,1-1.51-.19,3.73,3.73,0,0,1-1.15-.56,4,4,0,0,1-.8-.8l-.29-.42,1.41-1,.22.3a2.76,2.76,0,0,0,.54.54,2.39,2.39,0,0,0,.73.37,3.3,3.3,0,0,0,.94.12,2,2,0,0,0,1.05-.24.76.76,0,0,0,.39-.69.72.72,0,0,0-.35-.63,6.19,6.19,0,0,0-1.57-.51,5.27,5.27,0,0,1-2.3-1,2.09,2.09,0,0,1-.69-1.61,2.13,2.13,0,0,1,.94-1.81,4,4,0,0,1,2.39-.69,5.3,5.3,0,0,1,1.31.15,3.38,3.38,0,0,1,1,.45,3.46,3.46,0,0,1,.76.62l.28.34-1.35,1a2.35,2.35,0,0,0-.2-.22,1.92,1.92,0,0,0-.49-.39,2.39,2.39,0,0,0-.64-.26,3.24,3.24,0,0,0-.72-.08,1.71,1.71,0,0,0-1,.24.68.68,0,0,0-.37.57.71.71,0,0,0,.31.58,6.26,6.26,0,0,0,1.65.55,5.07,5.07,0,0,1,2.27,1,2,2,0,0,1,.7,1.56,2.34,2.34,0,0,1-1,2A4.13,4.13,0,0,1,185.55,56.27Zm8.32,0a2.71,2.71,0,0,1-1.94-.67,2.59,2.59,0,0,1-.7-2V45.48h2.13v7.85a1.36,1.36,0,0,0,.26.9,1,1,0,0,0,.76.3,1.84,1.84,0,0,0,.33,0l.43-.13.26-.1.1,1.67-.3.11a4.08,4.08,0,0,1-.6.16A3.91,3.91,0,0,1,193.87,56.27Zm-4-6.86V47.72h5.5v1.69Zm10.19,6.86a3,3,0,0,1-2.27-.82,3.28,3.28,0,0,1-.8-2.35V47.72h2.14v5a2,2,0,0,0,.42,1.39,1.58,1.58,0,0,0,1.22.46,1.77,1.77,0,0,0,1.37-.61,2.16,2.16,0,0,0,.56-1.5V47.72h2.14V56h-2V53.9l1,1h-1a2.81,2.81,0,0,1-1.08,1A3.29,3.29,0,0,1,200.09,56.27Zm10.29,0a3.68,3.68,0,0,1-2.82-1.21,5.1,5.1,0,0,1,0-6.38,3.66,3.66,0,0,1,2.83-1.22,3.32,3.32,0,0,1,1.58.37,2.62,2.62,0,0,1,1.06,1h.06V44.46h2.12V56h-2.06V54.59l.24.34h-.3a2.72,2.72,0,0,1-1.11,1A3.45,3.45,0,0,1,210.38,56.27Zm.49-1.8a2.12,2.12,0,0,0,1.64-.73,2.72,2.72,0,0,0,.65-1.88A2.68,2.68,0,0,0,212.5,50a2.23,2.23,0,0,0-3.28,0,2.68,2.68,0,0,0-.66,1.88,2.74,2.74,0,0,0,.65,1.88A2.13,2.13,0,0,0,210.87,54.47ZM217.4,56V47.72h2.14V56Zm1.07-9.73a1.21,1.21,0,0,1-.89-.36,1.19,1.19,0,0,1-.37-.89,1.15,1.15,0,0,1,.37-.88,1.26,1.26,0,0,1,1.78,1.77A1.18,1.18,0,0,1,218.47,46.27Zm7.22,10A4.4,4.4,0,0,1,222.44,55a4.59,4.59,0,0,1,0-6.33,4.45,4.45,0,0,1,3.24-1.25,4.37,4.37,0,0,1,3.22,1.26,4.22,4.22,0,0,1,1.27,3.16A4.27,4.27,0,0,1,228.92,55,4.36,4.36,0,0,1,225.69,56.27Zm0-1.82a2.2,2.2,0,0,0,1.69-.72,2.61,2.61,0,0,0,.68-1.87,2.58,2.58,0,0,0-.68-1.87,2.21,2.21,0,0,0-1.69-.72A2.25,2.25,0,0,0,224,50a2.62,2.62,0,0,0-.67,1.87,2.65,2.65,0,0,0,.67,1.87A2.25,2.25,0,0,0,225.69,54.45Z"/></svg>