<svg viewBox="0 0 518 87" xmlns="http://www.w3.org/2000/svg">
<path d="M467.016 86.04C466.627 86.04 466.296 85.9067 466.024 85.64C465.757 85.368 465.624 85.0373 465.624 84.648C465.624 84.264 465.757 83.9387 466.024 83.672C466.296 83.4053 466.627 83.272 467.016 83.272C467.411 83.272 467.741 83.4053 468.008 83.672C468.28 83.9387 468.416 84.264 468.416 84.648C468.416 85.0373 468.28 85.368 468.008 85.64C467.741 85.9067 467.411 86.04 467.016 86.04Z"/>
<path d="M473.349 86.192C472.773 86.192 472.269 86.128 471.837 86C471.411 85.872 471.03 85.6853 470.694 85.44C470.363 85.1893 470.096 84.9227 469.893 84.64C469.696 84.3573 469.598 84.216 469.598 84.216L471.005 83.216C471.005 83.216 471.08 83.3173 471.229 83.52C471.379 83.7227 471.56 83.904 471.773 84.064C471.992 84.224 472.235 84.3467 472.501 84.432C472.768 84.512 473.08 84.552 473.438 84.552C473.875 84.552 474.224 84.472 474.486 84.312C474.747 84.152 474.878 83.92 474.878 83.616C474.878 83.3493 474.76 83.1413 474.526 82.992C474.291 82.8373 473.768 82.6667 472.957 82.48C471.891 82.2293 471.125 81.8933 470.661 81.472C470.197 81.0507 469.965 80.512 469.965 79.856C469.965 79.1093 470.28 78.5067 470.909 78.048C471.544 77.5893 472.342 77.36 473.302 77.36C473.782 77.36 474.216 77.4107 474.605 77.512C475 77.6133 475.35 77.7627 475.654 77.96C475.963 78.152 476.213 78.36 476.405 78.584C476.597 78.808 476.694 78.92 476.694 78.92L475.341 79.936C475.341 79.936 475.275 79.864 475.142 79.72C475.008 79.5707 474.843 79.44 474.646 79.328C474.454 79.2107 474.243 79.1253 474.013 79.072C473.789 79.0187 473.547 78.992 473.285 78.992C472.891 78.992 472.571 79.072 472.326 79.232C472.08 79.3867 471.957 79.576 471.957 79.8C471.957 80.024 472.062 80.216 472.27 80.376C472.478 80.5307 473.027 80.7147 473.918 80.928C474.968 81.1787 475.726 81.5147 476.19 81.936C476.654 82.352 476.885 82.8747 476.885 83.504C476.885 84.3093 476.557 84.96 475.901 85.456C475.251 85.9467 474.4 86.192 473.349 86.192Z"/>
<path d="M481.667 86.192C480.851 86.192 480.206 85.968 479.731 85.52C479.262 85.072 479.027 84.416 479.027 83.552V75.4H481.163V83.248C481.163 83.6533 481.249 83.9547 481.419 84.152C481.59 84.344 481.843 84.4427 482.179 84.448C482.286 84.448 482.398 84.4373 482.515 84.416C482.633 84.3893 482.774 84.3467 482.939 84.288C483.11 84.224 483.195 84.192 483.195 84.192L483.299 85.864C483.299 85.864 483.201 85.8987 483.003 85.968C482.806 86.0373 482.603 86.0907 482.395 86.128C482.187 86.1707 481.945 86.192 481.667 86.192ZM477.699 79.328V77.64H483.195V79.328H477.699Z" />
<path d="M487.887 86.192C486.916 86.192 486.161 85.9173 485.622 85.368C485.089 84.8133 484.823 84.032 484.823 83.024V77.64H486.958V82.656C486.958 83.2693 487.1 83.7333 487.383 84.048C487.665 84.3573 488.071 84.512 488.599 84.512C489.143 84.512 489.598 84.3093 489.966 83.904C490.34 83.4933 490.526 82.992 490.526 82.4V77.64H492.671V85.92H490.647V83.816L491.622 84.784H490.591C490.351 85.1947 489.99 85.5333 489.51 85.8C489.036 86.0613 488.495 86.192 487.887 86.192Z" />
<path d="M498.178 86.192C497.047 86.192 496.109 85.7893 495.362 84.984C494.621 84.1733 494.25 83.1093 494.25 81.792C494.25 80.48 494.626 79.416 495.378 78.6C496.13 77.784 497.074 77.376 498.21 77.376C498.791 77.376 499.317 77.5013 499.786 77.752C500.261 77.9973 500.615 78.3173 500.85 78.712H500.906V74.376H503.026V85.92H500.97V84.512L501.21 84.848H500.914C500.658 85.248 500.287 85.5733 499.802 85.824C499.317 86.0693 498.775 86.192 498.178 86.192ZM498.666 84.392C499.322 84.392 499.869 84.1493 500.306 83.664C500.743 83.1787 500.962 82.552 500.962 81.784C500.962 81.0107 500.741 80.384 500.298 79.904C499.855 79.424 499.311 79.184 498.666 79.184C498.005 79.184 497.455 79.424 497.018 79.904C496.581 80.384 496.362 81.0107 496.362 81.784C496.362 82.5467 496.578 83.1733 497.01 83.664C497.447 84.1493 497.999 84.392 498.666 84.392Z"/>
<path d="M505.201 85.92V77.64H507.337V85.92H505.201ZM506.273 76.192C505.921 76.192 505.623 76.072 505.377 75.832C505.132 75.5867 505.009 75.2907 505.009 74.944C505.009 74.5867 505.132 74.2907 505.377 74.056C505.623 73.8213 505.921 73.704 506.273 73.704C506.636 73.704 506.935 73.8213 507.169 74.056C507.404 74.2907 507.521 74.5867 507.521 74.944C507.521 75.2907 507.401 75.5867 507.161 75.832C506.927 76.072 506.631 76.192 506.273 76.192Z" />
<path d="M513.488 86.192C512.166 86.192 511.083 85.776 510.24 84.944C509.403 84.1067 508.984 83.0533 508.984 81.784C508.984 80.4933 509.406 79.4347 510.248 78.608C511.096 77.776 512.176 77.36 513.488 77.36C514.795 77.36 515.87 77.7787 516.712 78.616C517.56 79.448 517.984 80.504 517.984 81.784C517.984 83.0533 517.563 84.1067 516.72 84.944C515.883 85.776 514.806 86.192 513.488 86.192ZM513.488 84.368C514.171 84.368 514.736 84.128 515.184 83.648C515.638 83.1627 515.864 82.5387 515.864 81.776C515.864 81.0133 515.638 80.392 515.184 79.912C514.731 79.432 514.166 79.192 513.488 79.192C512.795 79.192 512.222 79.432 511.768 79.912C511.32 80.392 511.096 81.0133 511.096 81.776C511.096 82.5387 511.32 83.1627 511.768 83.648C512.222 84.128 512.795 84.368 513.488 84.368Z"/>
<path d="M0 85.92V0H64.38V20.94H25.62V65.34H64.68V85.92H0ZM17.76 52.08V33.66H59.52V52.08H17.76Z"/>
<path d="M71.7234 85.92L71.7834 0H95.9634L124.043 44.1H124.163L124.043 38.22V0H148.223V85.92H127.163L95.9034 39.72H95.7834L95.9034 45.48V85.92H71.7234Z" />
<path d="M157.861 85.92V0H196.501C206.221 0 214.061 2.54 220.021 7.62C225.981 12.66 228.961 19.6 228.961 28.44C228.961 36.32 226.181 42.82 220.621 47.94C215.061 53.06 207.601 55.62 198.241 55.62H168.301V38.28H193.561C196.761 38.28 199.261 37.48 201.061 35.88C202.901 34.28 203.821 32 203.821 29.04V28.98C203.821 26.22 202.921 24 201.121 22.32C199.361 20.64 196.901 19.8 193.741 19.8H183.481V85.92H157.861ZM208.381 85.92L185.341 47.64L211.801 46.74L236.881 85.92H208.381Z" />
<path d="M238.139 85.92V0H302.519V20.94H263.759V65.34H302.819V85.92H238.139ZM255.899 52.08V33.66H297.659V52.08H255.899Z"/>
<path d="M301.522 85.92L334.402 0H357.202L390.022 85.92H363.622L346.582 37.26L345.202 33H345.082L343.702 37.2L326.362 85.92H301.522ZM319.342 71.94L325.162 56.4H365.302L371.302 71.94H319.342Z" />
<path d="M391.195 85.92V0H416.815V62.94H452.395V85.92H391.195Z"/>
</svg>
