<svg width="91" height="24" viewBox="0 0 91 24" fill="none" xmlns="http://www.w3.org/2000/svg">
    <path d="M0 23.028V5.844H10.944V9.372H3.732V19.5H11.064V23.028H0ZM2.112 15.996V12.9H10.536V15.996H2.112ZM4.2 4.02L5.808 0H9.312L7.044 4.02H4.2Z" />
    <path d="M14.2969 23.028V5.844H18.2089L24.9529 16.464H25.0369L24.9529 13.632V5.844H28.6369V23.028H25.1929L17.9809 11.976H17.8969L17.9809 14.796V23.028H14.2969Z" />
    <path d="M32.1328 23.028V5.844H38.9248C40.6048 5.844 42.0288 6.352 43.1968 7.368C44.3648 8.376 44.9488 9.72 44.9488 11.4C44.9488 12.976 44.3928 14.272 43.2808 15.288C42.1688 16.304 40.7248 16.812 38.9488 16.812H33.7168V14.076H38.5648C39.2768 14.076 39.8808 13.844 40.3768 13.38C40.8808 12.908 41.1328 12.304 41.1328 11.568C41.1328 10.912 40.8928 10.352 40.4128 9.888C39.9328 9.424 39.3528 9.192 38.6728 9.192H35.9488V23.028H32.1328ZM41.7208 23.028L36.6928 15.324L40.7248 15.192L46.1608 23.028H41.7208Z" />
    <path d="M47.9531 23.028V5.844H58.8971V9.372H51.6851V19.5H59.0171V23.028H47.9531ZM50.0651 15.996V12.9H58.4891V15.996H50.0651Z" />
    <path d="M60.642 23.028L67.23 5.844H70.674L77.25 23.028H73.098L69.57 12.684L68.946 10.596H68.862L68.238 12.672L64.698 23.028H60.642ZM63.834 19.692L64.842 16.932H72.678L73.746 19.692H63.834Z" />
    <path d="M79.1484 23.028V5.844H82.9644V19.476H90.2484V23.028H79.1484Z"/>
</svg>
