<svg width="68" height="24" viewBox="0 0 68 24" fill="none" xmlns="http://www.w3.org/2000/svg">
<path d="M4.70281e-05 23.028V5.84395H10.944V9.37195H3.73205V19.5H11.064V23.028H4.70281e-05ZM2.11205 15.996V12.9H10.536V15.996H2.11205ZM4.20005 4.01995L5.80805 -4.76837e-05H9.31205L7.04405 4.01995H4.20005ZM17.6809 23.028V7.72795H21.4849V23.028H17.6809ZM13.0129 9.38395V5.84395H26.1289V9.38395H13.0129ZM25.0405 23.028L31.6285 5.84395H35.0725L41.6485 23.028H37.4965L33.9685 12.684L33.3445 10.596H33.2605L32.6365 12.672L29.0965 23.028H25.0405ZM28.2325 19.692L29.2405 16.932H37.0765L38.1445 19.692H28.2325ZM45.22 23.028V7.72795H49.024V23.028H45.22ZM40.552 9.38395V5.84395H53.668V9.38395H40.552ZM61.0281 23.436C59.9721 23.436 59.0321 23.276 58.2081 22.956C57.3841 22.636 56.6881 22.188 56.1201 21.612C55.5601 21.036 55.1361 20.428 54.8481 19.788C54.5681 19.14 54.4281 18.816 54.4281 18.816L57.6801 17.484C57.6801 17.484 57.7681 17.688 57.9441 18.096C58.1281 18.496 58.3721 18.864 58.6761 19.2C58.9881 19.536 59.3561 19.796 59.7801 19.98C60.2121 20.164 60.6921 20.256 61.2201 20.256C61.9801 20.256 62.6001 20.068 63.0801 19.692C63.5601 19.316 63.8001 18.816 63.8001 18.192C63.8001 17.6 63.4801 17.112 62.8401 16.728C62.2081 16.336 61.2241 15.92 59.8881 15.48C58.2641 14.952 57.0481 14.28 56.2401 13.464C55.4401 12.648 55.0401 11.624 55.0401 10.392C55.0401 8.95995 55.6041 7.77595 56.7321 6.83995C57.8601 5.90395 59.3201 5.43595 61.1121 5.43595C62.0481 5.43595 62.8881 5.56795 63.6321 5.83195C64.3761 6.08795 65.0161 6.46795 65.5521 6.97195C66.0881 7.46795 66.4761 7.95995 66.7161 8.44795C66.9641 8.92795 67.0881 9.16795 67.0881 9.16795L63.9321 10.464C63.9321 10.464 63.8601 10.34 63.7161 10.092C63.5801 9.84395 63.3761 9.59595 63.1041 9.34795C62.8401 9.09995 62.5281 8.91195 62.1681 8.78395C61.8161 8.64795 61.4161 8.57995 60.9681 8.57995C60.3121 8.57995 59.7761 8.73195 59.3601 9.03595C58.9521 9.33195 58.7481 9.72395 58.7481 10.212C58.7481 10.676 58.9561 11.072 59.3721 11.4C59.7881 11.72 60.7881 12.124 62.3721 12.612C64.1481 13.148 65.4481 13.876 66.2721 14.796C67.1041 15.716 67.5201 16.808 67.5201 18.072C67.5201 19.68 66.9161 20.976 65.7081 21.96C64.5001 22.944 62.9401 23.436 61.0281 23.436Z"/>
</svg>
