<svg width="384" height="64" viewBox="0 0 384 64" fill="none" xmlns="http://www.w3.org/2000/svg">
<path d="M346.215 63.8871C345.927 63.8871 345.682 63.7881 345.48 63.5901C345.282 63.3882 345.183 63.1426 345.183 62.8535C345.183 62.5684 345.282 62.3268 345.48 62.1288C345.682 61.9308 345.927 61.8318 346.215 61.8318C346.508 61.8318 346.753 61.9308 346.951 62.1288C347.152 62.3268 347.253 62.5684 347.253 62.8535C347.253 63.1426 347.152 63.3882 346.951 63.5901C346.753 63.7881 346.508 63.8871 346.215 63.8871Z" />
<path d="M350.911 64C350.484 64 350.11 63.9525 349.79 63.8574C349.473 63.7624 349.191 63.6238 348.942 63.4416C348.697 63.2555 348.499 63.0575 348.349 62.8476C348.202 62.6377 348.129 62.5328 348.129 62.5328L349.173 61.7902C349.173 61.7902 349.228 61.8655 349.339 62.016C349.45 62.1665 349.584 62.3011 349.742 62.4199C349.904 62.5387 350.084 62.6298 350.282 62.6932C350.48 62.7526 350.711 62.7823 350.976 62.7823C351.3 62.7823 351.559 62.7229 351.753 62.6041C351.947 62.4852 352.043 62.313 352.043 62.0873C352.043 61.8892 351.956 61.7348 351.783 61.6239C351.609 61.5091 351.221 61.3823 350.62 61.2437C349.829 61.0576 349.262 60.8081 348.918 60.4953C348.574 60.1824 348.402 59.7824 348.402 59.2953C348.402 58.7409 348.635 58.2934 349.102 57.9529C349.572 57.6123 350.163 57.442 350.875 57.442C351.231 57.442 351.553 57.4796 351.842 57.5549C352.134 57.6301 352.393 57.741 352.619 57.8875C352.848 58.0301 353.034 58.1845 353.176 58.3508C353.319 58.5172 353.39 58.6003 353.39 58.6003L352.387 59.3547C352.387 59.3547 352.338 59.3013 352.239 59.1944C352.14 59.0835 352.018 58.9865 351.871 58.9033C351.729 58.8162 351.573 58.7528 351.403 58.7132C351.237 58.6736 351.057 58.6538 350.863 58.6538C350.571 58.6538 350.333 58.7132 350.152 58.832C349.97 58.9468 349.879 59.0874 349.879 59.2538C349.879 59.4201 349.956 59.5627 350.11 59.6815C350.264 59.7963 350.671 59.9329 351.332 60.0913C352.111 60.2775 352.672 60.527 353.016 60.8398C353.36 61.1487 353.532 61.5368 353.532 62.0041C353.532 62.6021 353.289 63.0852 352.803 63.4535C352.32 63.8178 351.69 64 350.911 64Z" />
<path d="M357.077 64C356.472 64 355.994 63.8337 355.642 63.501C355.294 63.1684 355.12 62.6813 355.12 62.0397V55.9866H356.703V61.814C356.703 62.115 356.767 62.3387 356.893 62.4852C357.02 62.6278 357.207 62.7011 357.456 62.705C357.536 62.705 357.619 62.6971 357.706 62.6813C357.793 62.6615 357.897 62.6298 358.02 62.5862C358.146 62.5387 358.21 62.5149 358.21 62.5149L358.287 63.7565C358.287 63.7565 358.214 63.7822 358.067 63.8337C357.921 63.8852 357.771 63.9248 357.617 63.9525C357.462 63.9842 357.283 64 357.077 64ZM354.135 58.9033V57.6499H358.21V58.9033H354.135Z" />
<path d="M361.687 64C360.968 64 360.408 63.7961 360.009 63.3882C359.614 62.9763 359.416 62.3961 359.416 61.6477V57.6499H361V61.3744C361 61.8298 361.104 62.1744 361.314 62.408C361.523 62.6377 361.824 62.7526 362.215 62.7526C362.619 62.7526 362.957 62.6021 363.229 62.3011C363.506 61.9962 363.645 61.6239 363.645 61.1843V57.6499H365.234V63.798H363.734V62.2358L364.457 62.9545H363.692C363.514 63.2595 363.247 63.5109 362.891 63.7089C362.54 63.903 362.138 64 361.687 64Z" />
<path d="M369.317 64C368.479 64 367.783 63.701 367.229 63.103C366.68 62.5011 366.405 61.711 366.405 60.7329C366.405 59.7587 366.684 58.9686 367.241 58.3627C367.799 57.7568 368.498 57.4539 369.341 57.4539C369.772 57.4539 370.161 57.5469 370.509 57.7331C370.861 57.9152 371.124 58.1528 371.298 58.4459H371.339V55.2263H372.911V63.798H371.387V62.7526L371.565 63.002H371.345C371.155 63.2991 370.881 63.5406 370.521 63.7268C370.161 63.9089 369.76 64 369.317 64ZM369.679 62.6635C370.165 62.6635 370.57 62.4833 370.894 62.1229C371.219 61.7625 371.381 61.2972 371.381 60.7269C371.381 60.1527 371.217 59.6874 370.888 59.331C370.56 58.9746 370.157 58.7964 369.679 58.7964C369.188 58.7964 368.781 58.9746 368.457 59.331C368.133 59.6874 367.971 60.1527 367.971 60.7269C367.971 61.2932 368.131 61.7586 368.451 62.1229C368.775 62.4833 369.184 62.6635 369.679 62.6635Z" />
<path d="M374.524 63.798V57.6499H376.107V63.798H374.524ZM375.318 56.5747C375.057 56.5747 374.836 56.4856 374.654 56.3074C374.472 56.1252 374.381 55.9055 374.381 55.648C374.381 55.3827 374.472 55.1629 374.654 54.9887C374.836 54.8144 375.057 54.7273 375.318 54.7273C375.587 54.7273 375.808 54.8144 375.982 54.9887C376.156 55.1629 376.243 55.3827 376.243 55.648C376.243 55.9055 376.154 56.1252 375.977 56.3074C375.803 56.4856 375.583 56.5747 375.318 56.5747Z" />
<path d="M380.667 64C379.686 64 378.884 63.6911 378.259 63.0733C377.638 62.4516 377.328 61.6695 377.328 60.7269C377.328 59.7686 377.64 58.9825 378.265 58.3687C378.894 57.7509 379.694 57.442 380.667 57.442C381.636 57.442 382.432 57.7529 383.057 58.3746C383.686 58.9924 384 59.7765 384 60.7269C384 61.6695 383.688 62.4516 383.063 63.0733C382.442 63.6911 381.644 64 380.667 64ZM380.667 62.6456C381.173 62.6456 381.592 62.4674 381.924 62.111C382.26 61.7506 382.428 61.2873 382.428 60.721C382.428 60.1547 382.26 59.6933 381.924 59.3369C381.588 58.9805 381.169 58.8023 380.667 58.8023C380.153 58.8023 379.728 58.9805 379.392 59.3369C379.06 59.6933 378.894 60.1547 378.894 60.721C378.894 61.2873 379.06 61.7506 379.392 62.111C379.728 62.4674 380.153 62.6456 380.667 62.6456Z" />
<path d="M0 63.798V0H47.7272V15.5485H18.993V48.5168H47.9496V63.798H0ZM13.1661 38.6709V24.9935H44.1243V38.6709H13.1661Z" />
<path d="M53.1711 63.798L53.2156 0H71.1411L91.9578 32.7455H92.0467L91.9578 28.3794V0H109.883V63.798H94.2707L71.0966 29.4932H71.0076L71.0966 33.7702V63.798H53.1711Z" />
<path d="M117.028 63.798V0H145.673C152.879 0 158.691 1.88602 163.109 5.65806C167.528 9.40041 169.737 14.5536 169.737 21.1175C169.737 26.9686 167.676 31.7951 163.554 35.5968C159.432 39.3986 153.902 41.2994 146.963 41.2994H124.767V28.424H143.494C145.866 28.424 147.719 27.83 149.054 26.6419C150.418 25.4539 151.1 23.7609 151.1 21.563V21.5185C151.1 19.4691 150.432 17.8207 149.098 16.5732C147.793 15.3258 145.97 14.7021 143.627 14.7021H136.021V63.798H117.028ZM154.48 63.798L137.4 35.3741L157.016 34.7058L175.608 63.798H154.48Z" />
<path d="M176.541 63.798V0H224.268V15.5485H195.534V48.5168H224.49V63.798H176.541ZM189.707 38.6709V24.9935H220.665V38.6709H189.707Z" />
<path d="M223.529 63.798L247.904 0H264.807L289.137 63.798H269.566L256.934 27.6666L255.911 24.5034H255.822L254.799 27.6221L241.944 63.798H223.529ZM236.74 53.4175L241.054 41.8786H270.812L275.26 53.4175H236.74Z" />
<path d="M290.007 63.798V0H309V46.7347H335.377V63.798H290.007Z" />
</svg>
