<svg xmlns="http://www.w3.org/2000/svg">
<path d="M17.84 18.24C16.24 18.24 14.96 17.52 14 16.08C13.04 14.64 12.56 12.72 12.56 10.32C12.56 8.45334 13.0133 6.8 13.92 5.36C14.8267 3.92 16 2.74667 17.44 1.84C18.88 0.880003 20.4 0.26667 22 0C22.48 0.48 22.72 1.12 22.72 1.92C21.3333 2.24 20.1067 2.82667 19.04 3.68C17.9733 4.48 17.1467 5.30667 16.56 6.16C15.9733 7.01334 15.68 7.73334 15.68 8.32C15.68 9.22667 15.9733 9.84 16.56 10.16C17.1467 10.48 17.8133 10.6933 18.56 10.8C19.3067 10.9067 20.08 11.2 20.88 11.68C21.68 12.16 22.08 13.04 22.08 14.32C22.08 15.44 21.68 16.3733 20.88 17.12C20.08 17.8667 19.0667 18.24 17.84 18.24ZM5.28 18.24C3.68 18.24 2.4 17.52 1.44 16.08C0.48 14.64 0 12.72 0 10.32C0 8.45334 0.453333 6.8 1.36 5.36C2.26667 3.92 3.44 2.74667 4.88 1.84C6.32 0.880003 7.84 0.26667 9.44 0C9.92 0.48 10.16 1.12 10.16 1.92C8.77333 2.24 7.54667 2.82667 6.48 3.68C5.41333 4.48 4.58667 5.30667 4 6.16C3.41333 7.01334 3.12 7.73334 3.12 8.32C3.12 9.22667 3.41333 9.84 4 10.16C4.58667 10.48 5.25333 10.6933 6 10.8C6.74667 10.9067 7.52 11.2 8.32 11.68C9.12 12.16 9.52 13.04 9.52 14.32C9.52 15.44 9.12 16.3733 8.32 17.12C7.52 17.8667 6.50667 18.24 5.28 18.24Z"/>
</svg>
