<svg width="67" height="31" viewBox="0 0 67 31" fill="none" xmlns="http://www.w3.org/2000/svg">
<path d="M4.05065 0.00844887H4.05932L28.6266 0.748449L32.8931 0.716652C42.6833 0.716652 49.2745 2.82972 54.5729 4.52647C58.4723 5.77522 61.8399 6.85628 65.5368 6.85628C66.1496 6.85628 66.6468 7.35348 66.6468 7.96628C66.6468 8.57909 66.1496 9.07628 65.5368 9.07628C61.4928 9.07628 57.9717 7.94897 53.8966 6.64235C48.4795 4.90505 42.337 2.93658 32.905 2.93658L28.6037 2.96837L4.02758 2.22837C3.5882 2.22837 2.60249 2.22837 2.27007 2.32665C2.2325 2.48275 2.21515 2.80939 2.21515 3.2979C2.21515 6.32147 6.55977 7.33031 7.72756 7.33031C7.76803 7.33031 7.80851 7.3332 7.84897 7.33609L20.7819 8.74091H35.3133C35.7267 8.74091 36.1054 8.96927 36.2961 9.33638L40.502 17.355C40.5511 17.4504 40.58 17.5487 40.6003 17.647L46.7313 16.5832C47.3326 16.4763 47.9107 16.8838 48.0148 17.4851C48.1188 18.0893 47.7141 18.6645 47.11 18.7686L35.4002 20.8007C33.2785 21.1534 28.9715 21.5927 27.4541 21.6101C26.6592 21.6188 25.6185 21.7546 25.1965 22.3443C24.7745 22.934 25.0173 23.8879 25.1502 24.3013C25.7746 26.423 29.041 26.9548 31.631 27.0271L43.7285 26.9202L43.8904 26.9693C44.0176 27.0069 56.6495 30.7791 64.9516 25.6079C65.4719 25.2841 66.1569 25.4431 66.4807 25.9634C66.8044 26.4837 66.6455 27.1688 66.1252 27.4926C62.3096 29.8686 57.7972 30.574 53.7938 30.574C48.6514 30.574 44.3418 29.412 43.4079 29.1402L31.6086 29.2414C26.7119 29.1056 23.8216 27.6516 23.029 24.9488C22.5405 23.4399 22.6706 22.0524 23.3932 21.0436C23.6968 20.6216 24.0899 20.2834 24.5697 20.0203C23.9251 19.3497 23.4626 18.523 23.24 17.598C22.7775 15.6845 23.4337 13.6581 24.9512 12.2186L26.1595 10.9525H20.7251C20.6846 10.9525 20.6442 10.9496 20.6037 10.9467L7.6685 9.54193C5.03802 9.51013 -0.00012207 7.61963 -0.00012207 3.29241C-0.00012207 0.300588 1.16479 0 4.05545 0L4.05065 0.00844887ZM26.5134 13.7969C25.5248 14.7363 25.1143 15.9359 25.3918 17.0864C25.6491 18.1559 26.4758 19.0028 27.6089 19.3845C29.0774 19.3382 32.9682 18.9538 35.0237 18.6098L38.348 18.0316L35.9979 13.5512L31.5087 16.9216C31.3093 17.0719 31.0751 17.1442 30.8439 17.1442C30.5057 17.1442 30.1733 16.991 29.9565 16.6991C29.5865 16.2076 29.6876 15.5139 30.179 15.1439L34.9572 11.5566L34.6422 10.9524H29.2222L26.5167 13.791L26.5134 13.7969Z"/>
</svg>
